<?xml version="1.0" encoding="utf-8"?>
<!-- Generator: Adobe Illustrator 16.0.0, SVG Export Plug-In . SVG Version: 6.00 Build 0)  -->
<!DOCTYPE svg PUBLIC "-//W3C//DTD SVG 1.1//EN" "http://www.w3.org/Graphics/SVG/1.1/DTD/svg11.dtd">
<svg version="1.1" xmlns="http://www.w3.org/2000/svg" xmlns:xlink="http://www.w3.org/1999/xlink" x="0px" y="0px" width="1600px"
	 height="774.924px" viewBox="0 0 1600 774.924" enable-background="new 0 0 1600 774.924" xml:space="preserve">
<g id="Layer_3" display="none">
</g>
<g id="Layer_2">
	<linearGradient id="SVGID_1_" gradientUnits="userSpaceOnUse" x1="1600" y1="387.5" x2="0" y2="387.4998">
		<stop  offset="0" style="stop-color:#24FFD7"/>
		<stop  offset="0.1751" style="stop-color:#1DECC9"/>
		<stop  offset="0.7317" style="stop-color:#08B3A0"/>
		<stop  offset="1" style="stop-color:#009D90"/>
	</linearGradient>
	<rect fill="url(#SVGID_1_)" width="1600" height="775"/>
</g>
<g id="Layer_7">
</g>
<g id="Layer_6">
	<radialGradient id="SVGID_2_" cx="785.8379" cy="1264.1348" r="1753.9489" gradientUnits="userSpaceOnUse">
		<stop  offset="0.1623" style="stop-color:#FFFBEF;stop-opacity:0"/>
		<stop  offset="0.2899" style="stop-color:#F7F9EF;stop-opacity:0.1523"/>
		<stop  offset="0.4862" style="stop-color:#E2F5EF;stop-opacity:0.3867"/>
		<stop  offset="0.7267" style="stop-color:#BEEDEF;stop-opacity:0.6737"/>
		<stop  offset="1" style="stop-color:#8EE3EF"/>
	</radialGradient>
	<path opacity="0.1" fill="url(#SVGID_2_)" d="M-11.784,974.943v2.045H1.475v20.936H3.52v-20.936h38.873v20.936h2.046v-20.936
		h38.873v20.936h2.046v-20.936h38.869v20.936h2.047v-20.936h38.875v20.936h2.045v-20.936h38.459v20.936h2.048v-20.936h38.869v20.936
		h2.045v-20.936h38.882v20.936h2.045v-20.936h38.865v20.936h2.045v-20.936h38.869v20.936h2.045v-20.936h38.882v20.936h2.046v-20.936
		h38.869v20.936h2.045v-20.936h38.865v20.936h2.045v-20.936h38.877v20.936h2.046v-20.936h38.874v20.936h2.045v-20.936h38.461v20.936
		h2.045v-20.936h38.867v20.936h2.045v-20.936h38.882v20.936h2.047v-20.936h38.867v20.936h2.046v-20.936h38.867v20.936h2.047v-20.936
		h38.879v20.936h2.046v-20.936h38.869v20.936h2.046v-20.936h38.864v20.936h2.046v-20.936h38.881v20.936h2.045v-20.936h38.869v20.936
		h2.046v-20.936h38.461v20.936h2.045v-20.936h38.878v20.936h2.045v-20.936h38.869v20.936h2.045v-20.936h38.869v20.936h2.046v-20.936
		h38.877v20.936h2.046v-20.936h38.872v20.936h2.046v-20.936h38.865v20.936h2.046v-20.936h38.872v20.936h2.046v-20.936h38.878v20.936
		h2.045v-20.936h38.869v20.936h2.045v-20.936h38.462v20.936h2.046v-20.936h38.876v20.936h2.046v-20.936h38.869v20.936h2.046v-20.936
		h38.869v20.936h2.045v-20.936h38.882v20.936h2.045v-20.936h14.11v-2.045h-14.11v-38.869h14.11v-2.047h-14.11v-38.863h14.11v-2.047
		h-14.11V854.24h14.11v-2.045h-14.11v-38.457h14.11v-2.045h-14.11v-38.869h14.11v-2.045h-14.11v-38.867h14.11v-2.045h-14.11v-38.873
		h14.11v-2.049h-14.11V650.08h14.11v-2.045h-14.11v-38.869h14.11v-2.045h-14.11V568.25h14.11v-2.047h-14.11v-38.871h14.11v-2.045
		h-14.11V486.42h14.11v-2.045h-14.11v-38.867h14.11v-2.045h-14.11V405h14.11v-2.045h-14.11v-38.873h14.11v-2.045h-14.11v-38.869
		h14.11v-2.045h-14.11v-38.867h14.11v-2.045h-14.11v-38.875h14.11v-2.047h-14.11v-38.865h14.11v-2.045h-14.11V159.51h14.11v-2.047
		h-14.11v-38.869h14.11v-2.045h-14.11V77.676h14.11v-2.045h-14.11V36.766h14.11v-2.045h-14.11V-3.74h14.11v-2.047h-14.11v-38.871
		h14.11v-2.045h-14.11v-38.871h14.11v-2.047h-14.11v-38.865h14.11v-2.045h-14.11v-38.865h14.11v-2.047h-14.11v-38.875h14.11v-2.047
		H-11.784v2.047H1.475v38.875h-13.259v2.047H1.475v38.865h-13.259v2.045H1.475v38.865h-13.259v2.047H1.475v38.871h-13.259v2.045
		H1.475v38.871h-13.259v2.047H1.475v38.461h-13.259v2.045H1.475v38.865h-13.259v2.045H1.475v38.873h-13.259v2.045H1.475v38.869
		h-13.259v2.047H1.475v38.869h-13.259v2.045H1.475v38.865h-13.259v2.047H1.475v38.875h-13.259v2.045H1.475v38.867h-13.259v2.045
		H1.475v38.869h-13.259v2.045H1.475v38.873h-13.259V405H1.475v38.463h-13.259v2.045H1.475v38.867h-13.259v2.045H1.475v38.867
		h-13.259v2.045H1.475v38.871h-13.259v2.047H1.475v38.871h-13.259v2.045H1.475v38.869h-13.259v2.045H1.475v38.865h-13.259v2.049
		H1.475v38.873h-13.259v2.045H1.475v38.867h-13.259v2.045H1.475v38.869h-13.259v2.045H1.475v38.457h-13.259v2.045H1.475v38.877
		h-13.259v2.047H1.475v38.863h-13.259v2.047H1.475v38.869H-11.784z M1556.747-208.318h38.882v38.875h-38.882V-208.318z
		 M1556.747-167.396h38.882v38.865h-38.882V-167.396z M1556.747-126.486h38.882v38.865h-38.882V-126.486z M1556.747-85.574h38.882
		v38.871h-38.882V-85.574z M1556.747-44.658h38.882v38.871h-38.882V-44.658z M1556.747-3.74h38.882v38.461h-38.882V-3.74z
		 M1556.747,36.766h38.882v38.865h-38.882V36.766z M1556.747,77.676h38.882v38.873h-38.882V77.676z M1556.747,118.594h38.882v38.869
		h-38.882V118.594z M1556.747,159.51h38.882v38.869h-38.882V159.51z M1556.747,200.424h38.882v38.865h-38.882V200.424z
		 M1556.747,241.336h38.882v38.875h-38.882V241.336z M1556.747,282.256h38.882v38.867h-38.882V282.256z M1556.747,323.168h38.882
		v38.869h-38.882V323.168z M1556.747,364.082h38.882v38.873h-38.882V364.082z M1556.747,405h38.882v38.463h-38.882V405z
		 M1556.747,445.508h38.882v38.867h-38.882V445.508z M1556.747,486.42h38.882v38.867h-38.882V486.42z M1556.747,527.332h38.882
		v38.871h-38.882V527.332z M1556.747,568.25h38.882v38.871h-38.882V568.25z M1556.747,609.166h38.882v38.869h-38.882V609.166z
		 M1556.747,650.08h38.882v38.865h-38.882V650.08z M1556.747,690.994h38.882v38.873h-38.882V690.994z M1556.747,731.912h38.882
		v38.867h-38.882V731.912z M1556.747,772.824h38.882v38.869h-38.882V772.824z M1556.747,813.738h38.882v38.457h-38.882V813.738z
		 M1556.747,854.24h38.882v38.877h-38.882V854.24z M1556.747,895.164h38.882v38.863h-38.882V895.164z M1556.747,936.074h38.882
		v38.869h-38.882V936.074z M1515.833-208.318h38.869v38.875h-38.869V-208.318z M1515.833-167.396h38.869v38.865h-38.869V-167.396z
		 M1515.833-126.486h38.869v38.865h-38.869V-126.486z M1515.833-85.574h38.869v38.871h-38.869V-85.574z M1515.833-44.658h38.869
		v38.871h-38.869V-44.658z M1515.833-3.74h38.869v38.461h-38.869V-3.74z M1515.833,36.766h38.869v38.865h-38.869V36.766z
		 M1515.833,77.676h38.869v38.873h-38.869V77.676z M1515.833,118.594h38.869v38.869h-38.869V118.594z M1515.833,159.51h38.869
		v38.869h-38.869V159.51z M1515.833,200.424h38.869v38.865h-38.869V200.424z M1515.833,241.336h38.869v38.875h-38.869V241.336z
		 M1515.833,282.256h38.869v38.867h-38.869V282.256z M1515.833,323.168h38.869v38.869h-38.869V323.168z M1515.833,364.082h38.869
		v38.873h-38.869V364.082z M1515.833,405h38.869v38.463h-38.869V405z M1515.833,445.508h38.869v38.867h-38.869V445.508z
		 M1515.833,486.42h38.869v38.867h-38.869V486.42z M1515.833,527.332h38.869v38.871h-38.869V527.332z M1515.833,568.25h38.869
		v38.871h-38.869V568.25z M1515.833,609.166h38.869v38.869h-38.869V609.166z M1515.833,650.08h38.869v38.865h-38.869V650.08z
		 M1515.833,690.994h38.869v38.873h-38.869V690.994z M1515.833,731.912h38.869v38.867h-38.869V731.912z M1515.833,772.824h38.869
		v38.869h-38.869V772.824z M1515.833,813.738h38.869v38.457h-38.869V813.738z M1515.833,854.24h38.869v38.877h-38.869V854.24z
		 M1515.833,895.164h38.869v38.863h-38.869V895.164z M1515.833,936.074h38.869v38.869h-38.869V936.074z M1474.918-208.318h38.869
		v38.875h-38.869V-208.318z M1474.918-167.396h38.869v38.865h-38.869V-167.396z M1474.918-126.486h38.869v38.865h-38.869V-126.486z
		 M1474.918-85.574h38.869v38.871h-38.869V-85.574z M1474.918-44.658h38.869v38.871h-38.869V-44.658z M1474.918-3.74h38.869v38.461
		h-38.869V-3.74z M1474.918,36.766h38.869v38.865h-38.869V36.766z M1474.918,77.676h38.869v38.873h-38.869V77.676z
		 M1474.918,118.594h38.869v38.869h-38.869V118.594z M1474.918,159.51h38.869v38.869h-38.869V159.51z M1474.918,200.424h38.869
		v38.865h-38.869V200.424z M1474.918,241.336h38.869v38.875h-38.869V241.336z M1474.918,282.256h38.869v38.867h-38.869V282.256z
		 M1474.918,323.168h38.869v38.869h-38.869V323.168z M1474.918,364.082h38.869v38.873h-38.869V364.082z M1474.918,405h38.869v38.463
		h-38.869V405z M1474.918,445.508h38.869v38.867h-38.869V445.508z M1474.918,486.42h38.869v38.867h-38.869V486.42z
		 M1474.918,527.332h38.869v38.871h-38.869V527.332z M1474.918,568.25h38.869v38.871h-38.869V568.25z M1474.918,609.166h38.869
		v38.869h-38.869V609.166z M1474.918,650.08h38.869v38.865h-38.869V650.08z M1474.918,690.994h38.869v38.873h-38.869V690.994z
		 M1474.918,731.912h38.869v38.867h-38.869V731.912z M1474.918,772.824h38.869v38.869h-38.869V772.824z M1474.918,813.738h38.869
		v38.457h-38.869V813.738z M1474.918,854.24h38.869v38.877h-38.869V854.24z M1474.918,895.164h38.869v38.863h-38.869V895.164z
		 M1474.918,936.074h38.869v38.869h-38.869V936.074z M1433.996-208.318h38.876v38.875h-38.876V-208.318z M1433.996-167.396h38.876
		v38.865h-38.876V-167.396z M1433.996-126.486h38.876v38.865h-38.876V-126.486z M1433.996-85.574h38.876v38.871h-38.876V-85.574z
		 M1433.996-44.658h38.876v38.871h-38.876V-44.658z M1433.996-3.74h38.876v38.461h-38.876V-3.74z M1433.996,36.766h38.876v38.865
		h-38.876V36.766z M1433.996,77.676h38.876v38.873h-38.876V77.676z M1433.996,118.594h38.876v38.869h-38.876V118.594z
		 M1433.996,159.51h38.876v38.869h-38.876V159.51z M1433.996,200.424h38.876v38.865h-38.876V200.424z M1433.996,241.336h38.876
		v38.875h-38.876V241.336z M1433.996,282.256h38.876v38.867h-38.876V282.256z M1433.996,323.168h38.876v38.869h-38.876V323.168z
		 M1433.996,364.082h38.876v38.873h-38.876V364.082z M1433.996,405h38.876v38.463h-38.876V405z M1433.996,445.508h38.876v38.867
		h-38.876V445.508z M1433.996,486.42h38.876v38.867h-38.876V486.42z M1433.996,527.332h38.876v38.871h-38.876V527.332z
		 M1433.996,568.25h38.876v38.871h-38.876V568.25z M1433.996,609.166h38.876v38.869h-38.876V609.166z M1433.996,650.08h38.876
		v38.865h-38.876V650.08z M1433.996,690.994h38.876v38.873h-38.876V690.994z M1433.996,731.912h38.876v38.867h-38.876V731.912z
		 M1433.996,772.824h38.876v38.869h-38.876V772.824z M1433.996,813.738h38.876v38.457h-38.876V813.738z M1433.996,854.24h38.876
		v38.877h-38.876V854.24z M1433.996,895.164h38.876v38.863h-38.876V895.164z M1433.996,936.074h38.876v38.869h-38.876V936.074z
		 M1393.488-208.318h38.462v38.875h-38.462V-208.318z M1393.488-167.396h38.462v38.865h-38.462V-167.396z M1393.488-126.486h38.462
		v38.865h-38.462V-126.486z M1393.488-85.574h38.462v38.871h-38.462V-85.574z M1393.488-44.658h38.462v38.871h-38.462V-44.658z
		 M1393.488-3.74h38.462v38.461h-38.462V-3.74z M1393.488,36.766h38.462v38.865h-38.462V36.766z M1393.488,77.676h38.462v38.873
		h-38.462V77.676z M1393.488,118.594h38.462v38.869h-38.462V118.594z M1393.488,159.51h38.462v38.869h-38.462V159.51z
		 M1393.488,200.424h38.462v38.865h-38.462V200.424z M1393.488,241.336h38.462v38.875h-38.462V241.336z M1393.488,282.256h38.462
		v38.867h-38.462V282.256z M1393.488,323.168h38.462v38.869h-38.462V323.168z M1393.488,364.082h38.462v38.873h-38.462V364.082z
		 M1393.488,405h38.462v38.463h-38.462V405z M1393.488,445.508h38.462v38.867h-38.462V445.508z M1393.488,486.42h38.462v38.867
		h-38.462V486.42z M1393.488,527.332h38.462v38.871h-38.462V527.332z M1393.488,568.25h38.462v38.871h-38.462V568.25z
		 M1393.488,609.166h38.462v38.869h-38.462V609.166z M1393.488,650.08h38.462v38.865h-38.462V650.08z M1393.488,690.994h38.462
		v38.873h-38.462V690.994z M1393.488,731.912h38.462v38.867h-38.462V731.912z M1393.488,772.824h38.462v38.869h-38.462V772.824z
		 M1393.488,813.738h38.462v38.457h-38.462V813.738z M1393.488,854.24h38.462v38.877h-38.462V854.24z M1393.488,895.164h38.462
		v38.863h-38.462V895.164z M1393.488,936.074h38.462v38.869h-38.462V936.074z M1352.574-208.318h38.869v38.875h-38.869V-208.318z
		 M1352.574-167.396h38.869v38.865h-38.869V-167.396z M1352.574-126.486h38.869v38.865h-38.869V-126.486z M1352.574-85.574h38.869
		v38.871h-38.869V-85.574z M1352.574-44.658h38.869v38.871h-38.869V-44.658z M1352.574-3.74h38.869v38.461h-38.869V-3.74z
		 M1352.574,36.766h38.869v38.865h-38.869V36.766z M1352.574,77.676h38.869v38.873h-38.869V77.676z M1352.574,118.594h38.869v38.869
		h-38.869V118.594z M1352.574,159.51h38.869v38.869h-38.869V159.51z M1352.574,200.424h38.869v38.865h-38.869V200.424z
		 M1352.574,241.336h38.869v38.875h-38.869V241.336z M1352.574,282.256h38.869v38.867h-38.869V282.256z M1352.574,323.168h38.869
		v38.869h-38.869V323.168z M1352.574,364.082h38.869v38.873h-38.869V364.082z M1352.574,405h38.869v38.463h-38.869V405z
		 M1352.574,445.508h38.869v38.867h-38.869V445.508z M1352.574,486.42h38.869v38.867h-38.869V486.42z M1352.574,527.332h38.869
		v38.871h-38.869V527.332z M1352.574,568.25h38.869v38.871h-38.869V568.25z M1352.574,609.166h38.869v38.869h-38.869V609.166z
		 M1352.574,650.08h38.869v38.865h-38.869V650.08z M1352.574,690.994h38.869v38.873h-38.869V690.994z M1352.574,731.912h38.869
		v38.867h-38.869V731.912z M1352.574,772.824h38.869v38.869h-38.869V772.824z M1352.574,813.738h38.869v38.457h-38.869V813.738z
		 M1352.574,854.24h38.869v38.877h-38.869V854.24z M1352.574,895.164h38.869v38.863h-38.869V895.164z M1352.574,936.074h38.869
		v38.869h-38.869V936.074z M1311.651-208.318h38.878v38.875h-38.878V-208.318z M1311.651-167.396h38.878v38.865h-38.878V-167.396z
		 M1311.651-126.486h38.878v38.865h-38.878V-126.486z M1311.651-85.574h38.878v38.871h-38.878V-85.574z M1311.651-44.658h38.878
		v38.871h-38.878V-44.658z M1311.651-3.74h38.878v38.461h-38.878V-3.74z M1311.651,36.766h38.878v38.865h-38.878V36.766z
		 M1311.651,77.676h38.878v38.873h-38.878V77.676z M1311.651,118.594h38.878v38.869h-38.878V118.594z M1311.651,159.51h38.878
		v38.869h-38.878V159.51z M1311.651,200.424h38.878v38.865h-38.878V200.424z M1311.651,241.336h38.878v38.875h-38.878V241.336z
		 M1311.651,282.256h38.878v38.867h-38.878V282.256z M1311.651,323.168h38.878v38.869h-38.878V323.168z M1311.651,364.082h38.878
		v38.873h-38.878V364.082z M1311.651,405h38.878v38.463h-38.878V405z M1311.651,445.508h38.878v38.867h-38.878V445.508z
		 M1311.651,486.42h38.878v38.867h-38.878V486.42z M1311.651,527.332h38.878v38.871h-38.878V527.332z M1311.651,568.25h38.878
		v38.871h-38.878V568.25z M1311.651,609.166h38.878v38.869h-38.878V609.166z M1311.651,650.08h38.878v38.865h-38.878V650.08z
		 M1311.651,690.994h38.878v38.873h-38.878V690.994z M1311.651,731.912h38.878v38.867h-38.878V731.912z M1311.651,772.824h38.878
		v38.869h-38.878V772.824z M1311.651,813.738h38.878v38.457h-38.878V813.738z M1311.651,854.24h38.878v38.877h-38.878V854.24z
		 M1311.651,895.164h38.878v38.863h-38.878V895.164z M1311.651,936.074h38.878v38.869h-38.878V936.074z M1270.733-208.318h38.872
		v38.875h-38.872V-208.318z M1270.733-167.396h38.872v38.865h-38.872V-167.396z M1270.733-126.486h38.872v38.865h-38.872V-126.486z
		 M1270.733-85.574h38.872v38.871h-38.872V-85.574z M1270.733-44.658h38.872v38.871h-38.872V-44.658z M1270.733-3.74h38.872v38.461
		h-38.872V-3.74z M1270.733,36.766h38.872v38.865h-38.872V36.766z M1270.733,77.676h38.872v38.873h-38.872V77.676z
		 M1270.733,118.594h38.872v38.869h-38.872V118.594z M1270.733,159.51h38.872v38.869h-38.872V159.51z M1270.733,200.424h38.872
		v38.865h-38.872V200.424z M1270.733,241.336h38.872v38.875h-38.872V241.336z M1270.733,282.256h38.872v38.867h-38.872V282.256z
		 M1270.733,323.168h38.872v38.869h-38.872V323.168z M1270.733,364.082h38.872v38.873h-38.872V364.082z M1270.733,405h38.872v38.463
		h-38.872V405z M1270.733,445.508h38.872v38.867h-38.872V445.508z M1270.733,486.42h38.872v38.867h-38.872V486.42z
		 M1270.733,527.332h38.872v38.871h-38.872V527.332z M1270.733,568.25h38.872v38.871h-38.872V568.25z M1270.733,609.166h38.872
		v38.869h-38.872V609.166z M1270.733,650.08h38.872v38.865h-38.872V650.08z M1270.733,690.994h38.872v38.873h-38.872V690.994z
		 M1270.733,731.912h38.872v38.867h-38.872V731.912z M1270.733,772.824h38.872v38.869h-38.872V772.824z M1270.733,813.738h38.872
		v38.457h-38.872V813.738z M1270.733,854.24h38.872v38.877h-38.872V854.24z M1270.733,895.164h38.872v38.863h-38.872V895.164z
		 M1270.733,936.074h38.872v38.869h-38.872V936.074z M1229.822-208.318h38.865v38.875h-38.865V-208.318z M1229.822-167.396h38.865
		v38.865h-38.865V-167.396z M1229.822-126.486h38.865v38.865h-38.865V-126.486z M1229.822-85.574h38.865v38.871h-38.865V-85.574z
		 M1229.822-44.658h38.865v38.871h-38.865V-44.658z M1229.822-3.74h38.865v38.461h-38.865V-3.74z M1229.822,36.766h38.865v38.865
		h-38.865V36.766z M1229.822,77.676h38.865v38.873h-38.865V77.676z M1229.822,118.594h38.865v38.869h-38.865V118.594z
		 M1229.822,159.51h38.865v38.869h-38.865V159.51z M1229.822,200.424h38.865v38.865h-38.865V200.424z M1229.822,241.336h38.865
		v38.875h-38.865V241.336z M1229.822,282.256h38.865v38.867h-38.865V282.256z M1229.822,323.168h38.865v38.869h-38.865V323.168z
		 M1229.822,364.082h38.865v38.873h-38.865V364.082z M1229.822,405h38.865v38.463h-38.865V405z M1229.822,445.508h38.865v38.867
		h-38.865V445.508z M1229.822,486.42h38.865v38.867h-38.865V486.42z M1229.822,527.332h38.865v38.871h-38.865V527.332z
		 M1229.822,568.25h38.865v38.871h-38.865V568.25z M1229.822,609.166h38.865v38.869h-38.865V609.166z M1229.822,650.08h38.865
		v38.865h-38.865V650.08z M1229.822,690.994h38.865v38.873h-38.865V690.994z M1229.822,731.912h38.865v38.867h-38.865V731.912z
		 M1229.822,772.824h38.865v38.869h-38.865V772.824z M1229.822,813.738h38.865v38.457h-38.865V813.738z M1229.822,854.24h38.865
		v38.877h-38.865V854.24z M1229.822,895.164h38.865v38.863h-38.865V895.164z M1229.822,936.074h38.865v38.869h-38.865V936.074z
		 M1188.904-208.318h38.872v38.875h-38.872V-208.318z M1188.904-167.396h38.872v38.865h-38.872V-167.396z M1188.904-126.486h38.872
		v38.865h-38.872V-126.486z M1188.904-85.574h38.872v38.871h-38.872V-85.574z M1188.904-44.658h38.872v38.871h-38.872V-44.658z
		 M1188.904-3.74h38.872v38.461h-38.872V-3.74z M1188.904,36.766h38.872v38.865h-38.872V36.766z M1188.904,77.676h38.872v38.873
		h-38.872V77.676z M1188.904,118.594h38.872v38.869h-38.872V118.594z M1188.904,159.51h38.872v38.869h-38.872V159.51z
		 M1188.904,200.424h38.872v38.865h-38.872V200.424z M1188.904,241.336h38.872v38.875h-38.872V241.336z M1188.904,282.256h38.872
		v38.867h-38.872V282.256z M1188.904,323.168h38.872v38.869h-38.872V323.168z M1188.904,364.082h38.872v38.873h-38.872V364.082z
		 M1188.904,405h38.872v38.463h-38.872V405z M1188.904,445.508h38.872v38.867h-38.872V445.508z M1188.904,486.42h38.872v38.867
		h-38.872V486.42z M1188.904,527.332h38.872v38.871h-38.872V527.332z M1188.904,568.25h38.872v38.871h-38.872V568.25z
		 M1188.904,609.166h38.872v38.869h-38.872V609.166z M1188.904,650.08h38.872v38.865h-38.872V650.08z M1188.904,690.994h38.872
		v38.873h-38.872V690.994z M1188.904,731.912h38.872v38.867h-38.872V731.912z M1188.904,772.824h38.872v38.869h-38.872V772.824z
		 M1188.904,813.738h38.872v38.457h-38.872V813.738z M1188.904,854.24h38.872v38.877h-38.872V854.24z M1188.904,895.164h38.872
		v38.863h-38.872V895.164z M1188.904,936.074h38.872v38.869h-38.872V936.074z M1147.981-208.318h38.877v38.875h-38.877V-208.318z
		 M1147.981-167.396h38.877v38.865h-38.877V-167.396z M1147.981-126.486h38.877v38.865h-38.877V-126.486z M1147.981-85.574h38.877
		v38.871h-38.877V-85.574z M1147.981-44.658h38.877v38.871h-38.877V-44.658z M1147.981-3.74h38.877v38.461h-38.877V-3.74z
		 M1147.981,36.766h38.877v38.865h-38.877V36.766z M1147.981,77.676h38.877v38.873h-38.877V77.676z M1147.981,118.594h38.877v38.869
		h-38.877V118.594z M1147.981,159.51h38.877v38.869h-38.877V159.51z M1147.981,200.424h38.877v38.865h-38.877V200.424z
		 M1147.981,241.336h38.877v38.875h-38.877V241.336z M1147.981,282.256h38.877v38.867h-38.877V282.256z M1147.981,323.168h38.877
		v38.869h-38.877V323.168z M1147.981,364.082h38.877v38.873h-38.877V364.082z M1147.981,405h38.877v38.463h-38.877V405z
		 M1147.981,445.508h38.877v38.867h-38.877V445.508z M1147.981,486.42h38.877v38.867h-38.877V486.42z M1147.981,527.332h38.877
		v38.871h-38.877V527.332z M1147.981,568.25h38.877v38.871h-38.877V568.25z M1147.981,609.166h38.877v38.869h-38.877V609.166z
		 M1147.981,650.08h38.877v38.865h-38.877V650.08z M1147.981,690.994h38.877v38.873h-38.877V690.994z M1147.981,731.912h38.877
		v38.867h-38.877V731.912z M1147.981,772.824h38.877v38.869h-38.877V772.824z M1147.981,813.738h38.877v38.457h-38.877V813.738z
		 M1147.981,854.24h38.877v38.877h-38.877V854.24z M1147.981,895.164h38.877v38.863h-38.877V895.164z M1147.981,936.074h38.877
		v38.869h-38.877V936.074z M1107.066-208.318h38.869v38.875h-38.869V-208.318z M1107.066-167.396h38.869v38.865h-38.869V-167.396z
		 M1107.066-126.486h38.869v38.865h-38.869V-126.486z M1107.066-85.574h38.869v38.871h-38.869V-85.574z M1107.066-44.658h38.869
		v38.871h-38.869V-44.658z M1107.066-3.74h38.869v38.461h-38.869V-3.74z M1107.066,36.766h38.869v38.865h-38.869V36.766z
		 M1107.066,77.676h38.869v38.873h-38.869V77.676z M1107.066,118.594h38.869v38.869h-38.869V118.594z M1107.066,159.51h38.869
		v38.869h-38.869V159.51z M1107.066,200.424h38.869v38.865h-38.869V200.424z M1107.066,241.336h38.869v38.875h-38.869V241.336z
		 M1107.066,282.256h38.869v38.867h-38.869V282.256z M1107.066,323.168h38.869v38.869h-38.869V323.168z M1107.066,364.082h38.869
		v38.873h-38.869V364.082z M1107.066,405h38.869v38.463h-38.869V405z M1107.066,445.508h38.869v38.867h-38.869V445.508z
		 M1107.066,486.42h38.869v38.867h-38.869V486.42z M1107.066,527.332h38.869v38.871h-38.869V527.332z M1107.066,568.25h38.869
		v38.871h-38.869V568.25z M1107.066,609.166h38.869v38.869h-38.869V609.166z M1107.066,650.08h38.869v38.865h-38.869V650.08z
		 M1107.066,690.994h38.869v38.873h-38.869V690.994z M1107.066,731.912h38.869v38.867h-38.869V731.912z M1107.066,772.824h38.869
		v38.869h-38.869V772.824z M1107.066,813.738h38.869v38.457h-38.869V813.738z M1107.066,854.24h38.869v38.877h-38.869V854.24z
		 M1107.066,895.164h38.869v38.863h-38.869V895.164z M1107.066,936.074h38.869v38.869h-38.869V936.074z M1066.152-208.318h38.869
		v38.875h-38.869V-208.318z M1066.152-167.396h38.869v38.865h-38.869V-167.396z M1066.152-126.486h38.869v38.865h-38.869V-126.486z
		 M1066.152-85.574h38.869v38.871h-38.869V-85.574z M1066.152-44.658h38.869v38.871h-38.869V-44.658z M1066.152-3.74h38.869v38.461
		h-38.869V-3.74z M1066.152,36.766h38.869v38.865h-38.869V36.766z M1066.152,77.676h38.869v38.873h-38.869V77.676z
		 M1066.152,118.594h38.869v38.869h-38.869V118.594z M1066.152,159.51h38.869v38.869h-38.869V159.51z M1066.152,200.424h38.869
		v38.865h-38.869V200.424z M1066.152,241.336h38.869v38.875h-38.869V241.336z M1066.152,282.256h38.869v38.867h-38.869V282.256z
		 M1066.152,323.168h38.869v38.869h-38.869V323.168z M1066.152,364.082h38.869v38.873h-38.869V364.082z M1066.152,405h38.869v38.463
		h-38.869V405z M1066.152,445.508h38.869v38.867h-38.869V445.508z M1066.152,486.42h38.869v38.867h-38.869V486.42z
		 M1066.152,527.332h38.869v38.871h-38.869V527.332z M1066.152,568.25h38.869v38.871h-38.869V568.25z M1066.152,609.166h38.869
		v38.869h-38.869V609.166z M1066.152,650.08h38.869v38.865h-38.869V650.08z M1066.152,690.994h38.869v38.873h-38.869V690.994z
		 M1066.152,731.912h38.869v38.867h-38.869V731.912z M1066.152,772.824h38.869v38.869h-38.869V772.824z M1066.152,813.738h38.869
		v38.457h-38.869V813.738z M1066.152,854.24h38.869v38.877h-38.869V854.24z M1066.152,895.164h38.869v38.863h-38.869V895.164z
		 M1066.152,936.074h38.869v38.869h-38.869V936.074z M1025.229-208.318h38.878v38.875h-38.878V-208.318z M1025.229-167.396h38.878
		v38.865h-38.878V-167.396z M1025.229-126.486h38.878v38.865h-38.878V-126.486z M1025.229-85.574h38.878v38.871h-38.878V-85.574z
		 M1025.229-44.658h38.878v38.871h-38.878V-44.658z M1025.229-3.74h38.878v38.461h-38.878V-3.74z M1025.229,36.766h38.878v38.865
		h-38.878V36.766z M1025.229,77.676h38.878v38.873h-38.878V77.676z M1025.229,118.594h38.878v38.869h-38.878V118.594z
		 M1025.229,159.51h38.878v38.869h-38.878V159.51z M1025.229,200.424h38.878v38.865h-38.878V200.424z M1025.229,241.336h38.878
		v38.875h-38.878V241.336z M1025.229,282.256h38.878v38.867h-38.878V282.256z M1025.229,323.168h38.878v38.869h-38.878V323.168z
		 M1025.229,364.082h38.878v38.873h-38.878V364.082z M1025.229,405h38.878v38.463h-38.878V405z M1025.229,445.508h38.878v38.867
		h-38.878V445.508z M1025.229,486.42h38.878v38.867h-38.878V486.42z M1025.229,527.332h38.878v38.871h-38.878V527.332z
		 M1025.229,568.25h38.878v38.871h-38.878V568.25z M1025.229,609.166h38.878v38.869h-38.878V609.166z M1025.229,650.08h38.878
		v38.865h-38.878V650.08z M1025.229,690.994h38.878v38.873h-38.878V690.994z M1025.229,731.912h38.878v38.867h-38.878V731.912z
		 M1025.229,772.824h38.878v38.869h-38.878V772.824z M1025.229,813.738h38.878v38.457h-38.878V813.738z M1025.229,854.24h38.878
		v38.877h-38.878V854.24z M1025.229,895.164h38.878v38.863h-38.878V895.164z M1025.229,936.074h38.878v38.869h-38.878V936.074z
		 M984.724-208.318h38.461v38.875h-38.461V-208.318z M984.724-167.396h38.461v38.865h-38.461V-167.396z M984.724-126.486h38.461
		v38.865h-38.461V-126.486z M984.724-85.574h38.461v38.871h-38.461V-85.574z M984.724-44.658h38.461v38.871h-38.461V-44.658z
		 M984.724-3.74h38.461v38.461h-38.461V-3.74z M984.724,36.766h38.461v38.865h-38.461V36.766z M984.724,77.676h38.461v38.873
		h-38.461V77.676z M984.724,118.594h38.461v38.869h-38.461V118.594z M984.724,159.51h38.461v38.869h-38.461V159.51z
		 M984.724,200.424h38.461v38.865h-38.461V200.424z M984.724,241.336h38.461v38.875h-38.461V241.336z M984.724,282.256h38.461
		v38.867h-38.461V282.256z M984.724,323.168h38.461v38.869h-38.461V323.168z M984.724,364.082h38.461v38.873h-38.461V364.082z
		 M984.724,405h38.461v38.463h-38.461V405z M984.724,445.508h38.461v38.867h-38.461V445.508z M984.724,486.42h38.461v38.867h-38.461
		V486.42z M984.724,527.332h38.461v38.871h-38.461V527.332z M984.724,568.25h38.461v38.871h-38.461V568.25z M984.724,609.166h38.461
		v38.869h-38.461V609.166z M984.724,650.08h38.461v38.865h-38.461V650.08z M984.724,690.994h38.461v38.873h-38.461V690.994z
		 M984.724,731.912h38.461v38.867h-38.461V731.912z M984.724,772.824h38.461v38.869h-38.461V772.824z M984.724,813.738h38.461
		v38.457h-38.461V813.738z M984.724,854.24h38.461v38.877h-38.461V854.24z M984.724,895.164h38.461v38.863h-38.461V895.164z
		 M984.724,936.074h38.461v38.869h-38.461V936.074z M943.809-208.318h38.869v38.875h-38.869V-208.318z M943.809-167.396h38.869
		v38.865h-38.869V-167.396z M943.809-126.486h38.869v38.865h-38.869V-126.486z M943.809-85.574h38.869v38.871h-38.869V-85.574z
		 M943.809-44.658h38.869v38.871h-38.869V-44.658z M943.809-3.74h38.869v38.461h-38.869V-3.74z M943.809,36.766h38.869v38.865
		h-38.869V36.766z M943.809,77.676h38.869v38.873h-38.869V77.676z M943.809,118.594h38.869v38.869h-38.869V118.594z M943.809,159.51
		h38.869v38.869h-38.869V159.51z M943.809,200.424h38.869v38.865h-38.869V200.424z M943.809,241.336h38.869v38.875h-38.869V241.336z
		 M943.809,282.256h38.869v38.867h-38.869V282.256z M943.809,323.168h38.869v38.869h-38.869V323.168z M943.809,364.082h38.869
		v38.873h-38.869V364.082z M943.809,405h38.869v38.463h-38.869V405z M943.809,445.508h38.869v38.867h-38.869V445.508z
		 M943.809,486.42h38.869v38.867h-38.869V486.42z M943.809,527.332h38.869v38.871h-38.869V527.332z M943.809,568.25h38.869v38.871
		h-38.869V568.25z M943.809,609.166h38.869v38.869h-38.869V609.166z M943.809,650.08h38.869v38.865h-38.869V650.08z
		 M943.809,690.994h38.869v38.873h-38.869V690.994z M943.809,731.912h38.869v38.867h-38.869V731.912z M943.809,772.824h38.869
		v38.869h-38.869V772.824z M943.809,813.738h38.869v38.457h-38.869V813.738z M943.809,854.24h38.869v38.877h-38.869V854.24z
		 M943.809,895.164h38.869v38.863h-38.869V895.164z M943.809,936.074h38.869v38.869h-38.869V936.074z M902.883-208.318h38.881
		v38.875h-38.881V-208.318z M902.883-167.396h38.881v38.865h-38.881V-167.396z M902.883-126.486h38.881v38.865h-38.881V-126.486z
		 M902.883-85.574h38.881v38.871h-38.881V-85.574z M902.883-44.658h38.881v38.871h-38.881V-44.658z M902.883-3.74h38.881v38.461
		h-38.881V-3.74z M902.883,36.766h38.881v38.865h-38.881V36.766z M902.883,77.676h38.881v38.873h-38.881V77.676z M902.883,118.594
		h38.881v38.869h-38.881V118.594z M902.883,159.51h38.881v38.869h-38.881V159.51z M902.883,200.424h38.881v38.865h-38.881V200.424z
		 M902.883,241.336h38.881v38.875h-38.881V241.336z M902.883,282.256h38.881v38.867h-38.881V282.256z M902.883,323.168h38.881
		v38.869h-38.881V323.168z M902.883,364.082h38.881v38.873h-38.881V364.082z M902.883,405h38.881v38.463h-38.881V405z
		 M902.883,445.508h38.881v38.867h-38.881V445.508z M902.883,486.42h38.881v38.867h-38.881V486.42z M902.883,527.332h38.881v38.871
		h-38.881V527.332z M902.883,568.25h38.881v38.871h-38.881V568.25z M902.883,609.166h38.881v38.869h-38.881V609.166z
		 M902.883,650.08h38.881v38.865h-38.881V650.08z M902.883,690.994h38.881v38.873h-38.881V690.994z M902.883,731.912h38.881v38.867
		h-38.881V731.912z M902.883,772.824h38.881v38.869h-38.881V772.824z M902.883,813.738h38.881v38.457h-38.881V813.738z
		 M902.883,854.24h38.881v38.877h-38.881V854.24z M902.883,895.164h38.881v38.863h-38.881V895.164z M902.883,936.074h38.881v38.869
		h-38.881V936.074z M861.973-208.318h38.864v38.875h-38.864V-208.318z M861.973-167.396h38.864v38.865h-38.864V-167.396z
		 M861.973-126.486h38.864v38.865h-38.864V-126.486z M861.973-85.574h38.864v38.871h-38.864V-85.574z M861.973-44.658h38.864v38.871
		h-38.864V-44.658z M861.973-3.74h38.864v38.461h-38.864V-3.74z M861.973,36.766h38.864v38.865h-38.864V36.766z M861.973,77.676
		h38.864v38.873h-38.864V77.676z M861.973,118.594h38.864v38.869h-38.864V118.594z M861.973,159.51h38.864v38.869h-38.864V159.51z
		 M861.973,200.424h38.864v38.865h-38.864V200.424z M861.973,241.336h38.864v38.875h-38.864V241.336z M861.973,282.256h38.864
		v38.867h-38.864V282.256z M861.973,323.168h38.864v38.869h-38.864V323.168z M861.973,364.082h38.864v38.873h-38.864V364.082z
		 M861.973,405h38.864v38.463h-38.864V405z M861.973,445.508h38.864v38.867h-38.864V445.508z M861.973,486.42h38.864v38.867h-38.864
		V486.42z M861.973,527.332h38.864v38.871h-38.864V527.332z M861.973,568.25h38.864v38.871h-38.864V568.25z M861.973,609.166h38.864
		v38.869h-38.864V609.166z M861.973,650.08h38.864v38.865h-38.864V650.08z M861.973,690.994h38.864v38.873h-38.864V690.994z
		 M861.973,731.912h38.864v38.867h-38.864V731.912z M861.973,772.824h38.864v38.869h-38.864V772.824z M861.973,813.738h38.864
		v38.457h-38.864V813.738z M861.973,854.24h38.864v38.877h-38.864V854.24z M861.973,895.164h38.864v38.863h-38.864V895.164z
		 M861.973,936.074h38.864v38.869h-38.864V936.074z M821.058-208.318h38.869v38.875h-38.869V-208.318z M821.058-167.396h38.869
		v38.865h-38.869V-167.396z M821.058-126.486h38.869v38.865h-38.869V-126.486z M821.058-85.574h38.869v38.871h-38.869V-85.574z
		 M821.058-44.658h38.869v38.871h-38.869V-44.658z M821.058-3.74h38.869v38.461h-38.869V-3.74z M821.058,36.766h38.869v38.865
		h-38.869V36.766z M821.058,77.676h38.869v38.873h-38.869V77.676z M821.058,118.594h38.869v38.869h-38.869V118.594z M821.058,159.51
		h38.869v38.869h-38.869V159.51z M821.058,200.424h38.869v38.865h-38.869V200.424z M821.058,241.336h38.869v38.875h-38.869V241.336z
		 M821.058,282.256h38.869v38.867h-38.869V282.256z M821.058,323.168h38.869v38.869h-38.869V323.168z M821.058,364.082h38.869
		v38.873h-38.869V364.082z M821.058,405h38.869v38.463h-38.869V405z M821.058,445.508h38.869v38.867h-38.869V445.508z
		 M821.058,486.42h38.869v38.867h-38.869V486.42z M821.058,527.332h38.869v38.871h-38.869V527.332z M821.058,568.25h38.869v38.871
		h-38.869V568.25z M821.058,609.166h38.869v38.869h-38.869V609.166z M821.058,650.08h38.869v38.865h-38.869V650.08z
		 M821.058,690.994h38.869v38.873h-38.869V690.994z M821.058,731.912h38.869v38.867h-38.869V731.912z M821.058,772.824h38.869
		v38.869h-38.869V772.824z M821.058,813.738h38.869v38.457h-38.869V813.738z M821.058,854.24h38.869v38.877h-38.869V854.24z
		 M821.058,895.164h38.869v38.863h-38.869V895.164z M821.058,936.074h38.869v38.869h-38.869V936.074z M780.133-208.318h38.879
		v38.875h-38.879V-208.318z M780.133-167.396h38.879v38.865h-38.879V-167.396z M780.133-126.486h38.879v38.865h-38.879V-126.486z
		 M780.133-85.574h38.879v38.871h-38.879V-85.574z M780.133-44.658h38.879v38.871h-38.879V-44.658z M780.133-3.74h38.879v38.461
		h-38.879V-3.74z M780.133,36.766h38.879v38.865h-38.879V36.766z M780.133,77.676h38.879v38.873h-38.879V77.676z M780.133,118.594
		h38.879v38.869h-38.879V118.594z M780.133,159.51h38.879v38.869h-38.879V159.51z M780.133,200.424h38.879v38.865h-38.879V200.424z
		 M780.133,241.336h38.879v38.875h-38.879V241.336z M780.133,282.256h38.879v38.867h-38.879V282.256z M780.133,323.168h38.879
		v38.869h-38.879V323.168z M780.133,364.082h38.879v38.873h-38.879V364.082z M780.133,405h38.879v38.463h-38.879V405z
		 M780.133,445.508h38.879v38.867h-38.879V445.508z M780.133,486.42h38.879v38.867h-38.879V486.42z M780.133,527.332h38.879v38.871
		h-38.879V527.332z M780.133,568.25h38.879v38.871h-38.879V568.25z M780.133,609.166h38.879v38.869h-38.879V609.166z
		 M780.133,650.08h38.879v38.865h-38.879V650.08z M780.133,690.994h38.879v38.873h-38.879V690.994z M780.133,731.912h38.879v38.867
		h-38.879V731.912z M780.133,772.824h38.879v38.869h-38.879V772.824z M780.133,813.738h38.879v38.457h-38.879V813.738z
		 M780.133,854.24h38.879v38.877h-38.879V854.24z M780.133,895.164h38.879v38.863h-38.879V895.164z M780.133,936.074h38.879v38.869
		h-38.879V936.074z M739.219-208.318h38.867v38.875h-38.867V-208.318z M739.219-167.396h38.867v38.865h-38.867V-167.396z
		 M739.219-126.486h38.867v38.865h-38.867V-126.486z M739.219-85.574h38.867v38.871h-38.867V-85.574z M739.219-44.658h38.867v38.871
		h-38.867V-44.658z M739.219-3.74h38.867v38.461h-38.867V-3.74z M739.219,36.766h38.867v38.865h-38.867V36.766z M739.219,77.676
		h38.867v38.873h-38.867V77.676z M739.219,118.594h38.867v38.869h-38.867V118.594z M739.219,159.51h38.867v38.869h-38.867V159.51z
		 M739.219,200.424h38.867v38.865h-38.867V200.424z M739.219,241.336h38.867v38.875h-38.867V241.336z M739.219,282.256h38.867
		v38.867h-38.867V282.256z M739.219,323.168h38.867v38.869h-38.867V323.168z M739.219,364.082h38.867v38.873h-38.867V364.082z
		 M739.219,405h38.867v38.463h-38.867V405z M739.219,445.508h38.867v38.867h-38.867V445.508z M739.219,486.42h38.867v38.867h-38.867
		V486.42z M739.219,527.332h38.867v38.871h-38.867V527.332z M739.219,568.25h38.867v38.871h-38.867V568.25z M739.219,609.166h38.867
		v38.869h-38.867V609.166z M739.219,650.08h38.867v38.865h-38.867V650.08z M739.219,690.994h38.867v38.873h-38.867V690.994z
		 M739.219,731.912h38.867v38.867h-38.867V731.912z M739.219,772.824h38.867v38.869h-38.867V772.824z M739.219,813.738h38.867
		v38.457h-38.867V813.738z M739.219,854.24h38.867v38.877h-38.867V854.24z M739.219,895.164h38.867v38.863h-38.867V895.164z
		 M739.219,936.074h38.867v38.869h-38.867V936.074z M698.306-208.318h38.867v38.875h-38.867V-208.318z M698.306-167.396h38.867
		v38.865h-38.867V-167.396z M698.306-126.486h38.867v38.865h-38.867V-126.486z M698.306-85.574h38.867v38.871h-38.867V-85.574z
		 M698.306-44.658h38.867v38.871h-38.867V-44.658z M698.306-3.74h38.867v38.461h-38.867V-3.74z M698.306,36.766h38.867v38.865
		h-38.867V36.766z M698.306,77.676h38.867v38.873h-38.867V77.676z M698.306,118.594h38.867v38.869h-38.867V118.594z M698.306,159.51
		h38.867v38.869h-38.867V159.51z M698.306,200.424h38.867v38.865h-38.867V200.424z M698.306,241.336h38.867v38.875h-38.867V241.336z
		 M698.306,282.256h38.867v38.867h-38.867V282.256z M698.306,323.168h38.867v38.869h-38.867V323.168z M698.306,364.082h38.867
		v38.873h-38.867V364.082z M698.306,405h38.867v38.463h-38.867V405z M698.306,445.508h38.867v38.867h-38.867V445.508z
		 M698.306,486.42h38.867v38.867h-38.867V486.42z M698.306,527.332h38.867v38.871h-38.867V527.332z M698.306,568.25h38.867v38.871
		h-38.867V568.25z M698.306,609.166h38.867v38.869h-38.867V609.166z M698.306,650.08h38.867v38.865h-38.867V650.08z
		 M698.306,690.994h38.867v38.873h-38.867V690.994z M698.306,731.912h38.867v38.867h-38.867V731.912z M698.306,772.824h38.867
		v38.869h-38.867V772.824z M698.306,813.738h38.867v38.457h-38.867V813.738z M698.306,854.24h38.867v38.877h-38.867V854.24z
		 M698.306,895.164h38.867v38.863h-38.867V895.164z M698.306,936.074h38.867v38.869h-38.867V936.074z M657.377-208.318h38.882
		v38.875h-38.882V-208.318z M657.377-167.396h38.882v38.865h-38.882V-167.396z M657.377-126.486h38.882v38.865h-38.882V-126.486z
		 M657.377-85.574h38.882v38.871h-38.882V-85.574z M657.377-44.658h38.882v38.871h-38.882V-44.658z M657.377-3.74h38.882v38.461
		h-38.882V-3.74z M657.377,36.766h38.882v38.865h-38.882V36.766z M657.377,77.676h38.882v38.873h-38.882V77.676z M657.377,118.594
		h38.882v38.869h-38.882V118.594z M657.377,159.51h38.882v38.869h-38.882V159.51z M657.377,200.424h38.882v38.865h-38.882V200.424z
		 M657.377,241.336h38.882v38.875h-38.882V241.336z M657.377,282.256h38.882v38.867h-38.882V282.256z M657.377,323.168h38.882
		v38.869h-38.882V323.168z M657.377,364.082h38.882v38.873h-38.882V364.082z M657.377,405h38.882v38.463h-38.882V405z
		 M657.377,445.508h38.882v38.867h-38.882V445.508z M657.377,486.42h38.882v38.867h-38.882V486.42z M657.377,527.332h38.882v38.871
		h-38.882V527.332z M657.377,568.25h38.882v38.871h-38.882V568.25z M657.377,609.166h38.882v38.869h-38.882V609.166z
		 M657.377,650.08h38.882v38.865h-38.882V650.08z M657.377,690.994h38.882v38.873h-38.882V690.994z M657.377,731.912h38.882v38.867
		h-38.882V731.912z M657.377,772.824h38.882v38.869h-38.882V772.824z M657.377,813.738h38.882v38.457h-38.882V813.738z
		 M657.377,854.24h38.882v38.877h-38.882V854.24z M657.377,895.164h38.882v38.863h-38.882V895.164z M657.377,936.074h38.882v38.869
		h-38.882V936.074z M616.465-208.318h38.867v38.875h-38.867V-208.318z M616.465-167.396h38.867v38.865h-38.867V-167.396z
		 M616.465-126.486h38.867v38.865h-38.867V-126.486z M616.465-85.574h38.867v38.871h-38.867V-85.574z M616.465-44.658h38.867v38.871
		h-38.867V-44.658z M616.465-3.74h38.867v38.461h-38.867V-3.74z M616.465,36.766h38.867v38.865h-38.867V36.766z M616.465,77.676
		h38.867v38.873h-38.867V77.676z M616.465,118.594h38.867v38.869h-38.867V118.594z M616.465,159.51h38.867v38.869h-38.867V159.51z
		 M616.465,200.424h38.867v38.865h-38.867V200.424z M616.465,241.336h38.867v38.875h-38.867V241.336z M616.465,282.256h38.867
		v38.867h-38.867V282.256z M616.465,323.168h38.867v38.869h-38.867V323.168z M616.465,364.082h38.867v38.873h-38.867V364.082z
		 M616.465,405h38.867v38.463h-38.867V405z M616.465,445.508h38.867v38.867h-38.867V445.508z M616.465,486.42h38.867v38.867h-38.867
		V486.42z M616.465,527.332h38.867v38.871h-38.867V527.332z M616.465,568.25h38.867v38.871h-38.867V568.25z M616.465,609.166h38.867
		v38.869h-38.867V609.166z M616.465,650.08h38.867v38.865h-38.867V650.08z M616.465,690.994h38.867v38.873h-38.867V690.994z
		 M616.465,731.912h38.867v38.867h-38.867V731.912z M616.465,772.824h38.867v38.869h-38.867V772.824z M616.465,813.738h38.867
		v38.457h-38.867V813.738z M616.465,854.24h38.867v38.877h-38.867V854.24z M616.465,895.164h38.867v38.863h-38.867V895.164z
		 M616.465,936.074h38.867v38.869h-38.867V936.074z M575.959-208.318h38.461v38.875h-38.461V-208.318z M575.959-167.396h38.461
		v38.865h-38.461V-167.396z M575.959-126.486h38.461v38.865h-38.461V-126.486z M575.959-85.574h38.461v38.871h-38.461V-85.574z
		 M575.959-44.658h38.461v38.871h-38.461V-44.658z M575.959-3.74h38.461v38.461h-38.461V-3.74z M575.959,36.766h38.461v38.865
		h-38.461V36.766z M575.959,77.676h38.461v38.873h-38.461V77.676z M575.959,118.594h38.461v38.869h-38.461V118.594z M575.959,159.51
		h38.461v38.869h-38.461V159.51z M575.959,200.424h38.461v38.865h-38.461V200.424z M575.959,241.336h38.461v38.875h-38.461V241.336z
		 M575.959,282.256h38.461v38.867h-38.461V282.256z M575.959,323.168h38.461v38.869h-38.461V323.168z M575.959,364.082h38.461
		v38.873h-38.461V364.082z M575.959,405h38.461v38.463h-38.461V405z M575.959,445.508h38.461v38.867h-38.461V445.508z
		 M575.959,486.42h38.461v38.867h-38.461V486.42z M575.959,527.332h38.461v38.871h-38.461V527.332z M575.959,568.25h38.461v38.871
		h-38.461V568.25z M575.959,609.166h38.461v38.869h-38.461V609.166z M575.959,650.08h38.461v38.865h-38.461V650.08z
		 M575.959,690.994h38.461v38.873h-38.461V690.994z M575.959,731.912h38.461v38.867h-38.461V731.912z M575.959,772.824h38.461
		v38.869h-38.461V772.824z M575.959,813.738h38.461v38.457h-38.461V813.738z M575.959,854.24h38.461v38.877h-38.461V854.24z
		 M575.959,895.164h38.461v38.863h-38.461V895.164z M575.959,936.074h38.461v38.869h-38.461V936.074z M535.04-208.318h38.874v38.875
		H535.04V-208.318z M535.04-167.396h38.874v38.865H535.04V-167.396z M535.04-126.486h38.874v38.865H535.04V-126.486z M535.04-85.574
		h38.874v38.871H535.04V-85.574z M535.04-44.658h38.874v38.871H535.04V-44.658z M535.04-3.74h38.874v38.461H535.04V-3.74z
		 M535.04,36.766h38.874v38.865H535.04V36.766z M535.04,77.676h38.874v38.873H535.04V77.676z M535.04,118.594h38.874v38.869H535.04
		V118.594z M535.04,159.51h38.874v38.869H535.04V159.51z M535.04,200.424h38.874v38.865H535.04V200.424z M535.04,241.336h38.874
		v38.875H535.04V241.336z M535.04,282.256h38.874v38.867H535.04V282.256z M535.04,323.168h38.874v38.869H535.04V323.168z
		 M535.04,364.082h38.874v38.873H535.04V364.082z M535.04,405h38.874v38.463H535.04V405z M535.04,445.508h38.874v38.867H535.04
		V445.508z M535.04,486.42h38.874v38.867H535.04V486.42z M535.04,527.332h38.874v38.871H535.04V527.332z M535.04,568.25h38.874
		v38.871H535.04V568.25z M535.04,609.166h38.874v38.869H535.04V609.166z M535.04,650.08h38.874v38.865H535.04V650.08z
		 M535.04,690.994h38.874v38.873H535.04V690.994z M535.04,731.912h38.874v38.867H535.04V731.912z M535.04,772.824h38.874v38.869
		H535.04V772.824z M535.04,813.738h38.874v38.457H535.04V813.738z M535.04,854.24h38.874v38.877H535.04V854.24z M535.04,895.164
		h38.874v38.863H535.04V895.164z M535.04,936.074h38.874v38.869H535.04V936.074z M494.117-208.318h38.877v38.875h-38.877V-208.318z
		 M494.117-167.396h38.877v38.865h-38.877V-167.396z M494.117-126.486h38.877v38.865h-38.877V-126.486z M494.117-85.574h38.877
		v38.871h-38.877V-85.574z M494.117-44.658h38.877v38.871h-38.877V-44.658z M494.117-3.74h38.877v38.461h-38.877V-3.74z
		 M494.117,36.766h38.877v38.865h-38.877V36.766z M494.117,77.676h38.877v38.873h-38.877V77.676z M494.117,118.594h38.877v38.869
		h-38.877V118.594z M494.117,159.51h38.877v38.869h-38.877V159.51z M494.117,200.424h38.877v38.865h-38.877V200.424z
		 M494.117,241.336h38.877v38.875h-38.877V241.336z M494.117,282.256h38.877v38.867h-38.877V282.256z M494.117,323.168h38.877
		v38.869h-38.877V323.168z M494.117,364.082h38.877v38.873h-38.877V364.082z M494.117,405h38.877v38.463h-38.877V405z
		 M494.117,445.508h38.877v38.867h-38.877V445.508z M494.117,486.42h38.877v38.867h-38.877V486.42z M494.117,527.332h38.877v38.871
		h-38.877V527.332z M494.117,568.25h38.877v38.871h-38.877V568.25z M494.117,609.166h38.877v38.869h-38.877V609.166z
		 M494.117,650.08h38.877v38.865h-38.877V650.08z M494.117,690.994h38.877v38.873h-38.877V690.994z M494.117,731.912h38.877v38.867
		h-38.877V731.912z M494.117,772.824h38.877v38.869h-38.877V772.824z M494.117,813.738h38.877v38.457h-38.877V813.738z
		 M494.117,854.24h38.877v38.877h-38.877V854.24z M494.117,895.164h38.877v38.863h-38.877V895.164z M494.117,936.074h38.877v38.869
		h-38.877V936.074z M453.207-208.318h38.865v38.875h-38.865V-208.318z M453.207-167.396h38.865v38.865h-38.865V-167.396z
		 M453.207-126.486h38.865v38.865h-38.865V-126.486z M453.207-85.574h38.865v38.871h-38.865V-85.574z M453.207-44.658h38.865v38.871
		h-38.865V-44.658z M453.207-3.74h38.865v38.461h-38.865V-3.74z M453.207,36.766h38.865v38.865h-38.865V36.766z M453.207,77.676
		h38.865v38.873h-38.865V77.676z M453.207,118.594h38.865v38.869h-38.865V118.594z M453.207,159.51h38.865v38.869h-38.865V159.51z
		 M453.207,200.424h38.865v38.865h-38.865V200.424z M453.207,241.336h38.865v38.875h-38.865V241.336z M453.207,282.256h38.865
		v38.867h-38.865V282.256z M453.207,323.168h38.865v38.869h-38.865V323.168z M453.207,364.082h38.865v38.873h-38.865V364.082z
		 M453.207,405h38.865v38.463h-38.865V405z M453.207,445.508h38.865v38.867h-38.865V445.508z M453.207,486.42h38.865v38.867h-38.865
		V486.42z M453.207,527.332h38.865v38.871h-38.865V527.332z M453.207,568.25h38.865v38.871h-38.865V568.25z M453.207,609.166h38.865
		v38.869h-38.865V609.166z M453.207,650.08h38.865v38.865h-38.865V650.08z M453.207,690.994h38.865v38.873h-38.865V690.994z
		 M453.207,731.912h38.865v38.867h-38.865V731.912z M453.207,772.824h38.865v38.869h-38.865V772.824z M453.207,813.738h38.865
		v38.457h-38.865V813.738z M453.207,854.24h38.865v38.877h-38.865V854.24z M453.207,895.164h38.865v38.863h-38.865V895.164z
		 M453.207,936.074h38.865v38.869h-38.865V936.074z M412.293-208.318h38.869v38.875h-38.869V-208.318z M412.293-167.396h38.869
		v38.865h-38.869V-167.396z M412.293-126.486h38.869v38.865h-38.869V-126.486z M412.293-85.574h38.869v38.871h-38.869V-85.574z
		 M412.293-44.658h38.869v38.871h-38.869V-44.658z M412.293-3.74h38.869v38.461h-38.869V-3.74z M412.293,36.766h38.869v38.865
		h-38.869V36.766z M412.293,77.676h38.869v38.873h-38.869V77.676z M412.293,118.594h38.869v38.869h-38.869V118.594z M412.293,159.51
		h38.869v38.869h-38.869V159.51z M412.293,200.424h38.869v38.865h-38.869V200.424z M412.293,241.336h38.869v38.875h-38.869V241.336z
		 M412.293,282.256h38.869v38.867h-38.869V282.256z M412.293,323.168h38.869v38.869h-38.869V323.168z M412.293,364.082h38.869
		v38.873h-38.869V364.082z M412.293,405h38.869v38.463h-38.869V405z M412.293,445.508h38.869v38.867h-38.869V445.508z
		 M412.293,486.42h38.869v38.867h-38.869V486.42z M412.293,527.332h38.869v38.871h-38.869V527.332z M412.293,568.25h38.869v38.871
		h-38.869V568.25z M412.293,609.166h38.869v38.869h-38.869V609.166z M412.293,650.08h38.869v38.865h-38.869V650.08z
		 M412.293,690.994h38.869v38.873h-38.869V690.994z M412.293,731.912h38.869v38.867h-38.869V731.912z M412.293,772.824h38.869
		v38.869h-38.869V772.824z M412.293,813.738h38.869v38.457h-38.869V813.738z M412.293,854.24h38.869v38.877h-38.869V854.24z
		 M412.293,895.164h38.869v38.863h-38.869V895.164z M412.293,936.074h38.869v38.869h-38.869V936.074z M371.365-208.318h38.882
		v38.875h-38.882V-208.318z M371.365-167.396h38.882v38.865h-38.882V-167.396z M371.365-126.486h38.882v38.865h-38.882V-126.486z
		 M371.365-85.574h38.882v38.871h-38.882V-85.574z M371.365-44.658h38.882v38.871h-38.882V-44.658z M371.365-3.74h38.882v38.461
		h-38.882V-3.74z M371.365,36.766h38.882v38.865h-38.882V36.766z M371.365,77.676h38.882v38.873h-38.882V77.676z M371.365,118.594
		h38.882v38.869h-38.882V118.594z M371.365,159.51h38.882v38.869h-38.882V159.51z M371.365,200.424h38.882v38.865h-38.882V200.424z
		 M371.365,241.336h38.882v38.875h-38.882V241.336z M371.365,282.256h38.882v38.867h-38.882V282.256z M371.365,323.168h38.882
		v38.869h-38.882V323.168z M371.365,364.082h38.882v38.873h-38.882V364.082z M371.365,405h38.882v38.463h-38.882V405z
		 M371.365,445.508h38.882v38.867h-38.882V445.508z M371.365,486.42h38.882v38.867h-38.882V486.42z M371.365,527.332h38.882v38.871
		h-38.882V527.332z M371.365,568.25h38.882v38.871h-38.882V568.25z M371.365,609.166h38.882v38.869h-38.882V609.166z
		 M371.365,650.08h38.882v38.865h-38.882V650.08z M371.365,690.994h38.882v38.873h-38.882V690.994z M371.365,731.912h38.882v38.867
		h-38.882V731.912z M371.365,772.824h38.882v38.869h-38.882V772.824z M371.365,813.738h38.882v38.457h-38.882V813.738z
		 M371.365,854.24h38.882v38.877h-38.882V854.24z M371.365,895.164h38.882v38.863h-38.882V895.164z M371.365,936.074h38.882v38.869
		h-38.882V936.074z M330.451-208.318h38.869v38.875h-38.869V-208.318z M330.451-167.396h38.869v38.865h-38.869V-167.396z
		 M330.451-126.486h38.869v38.865h-38.869V-126.486z M330.451-85.574h38.869v38.871h-38.869V-85.574z M330.451-44.658h38.869v38.871
		h-38.869V-44.658z M330.451-3.74h38.869v38.461h-38.869V-3.74z M330.451,36.766h38.869v38.865h-38.869V36.766z M330.451,77.676
		h38.869v38.873h-38.869V77.676z M330.451,118.594h38.869v38.869h-38.869V118.594z M330.451,159.51h38.869v38.869h-38.869V159.51z
		 M330.451,200.424h38.869v38.865h-38.869V200.424z M330.451,241.336h38.869v38.875h-38.869V241.336z M330.451,282.256h38.869
		v38.867h-38.869V282.256z M330.451,323.168h38.869v38.869h-38.869V323.168z M330.451,364.082h38.869v38.873h-38.869V364.082z
		 M330.451,405h38.869v38.463h-38.869V405z M330.451,445.508h38.869v38.867h-38.869V445.508z M330.451,486.42h38.869v38.867h-38.869
		V486.42z M330.451,527.332h38.869v38.871h-38.869V527.332z M330.451,568.25h38.869v38.871h-38.869V568.25z M330.451,609.166h38.869
		v38.869h-38.869V609.166z M330.451,650.08h38.869v38.865h-38.869V650.08z M330.451,690.994h38.869v38.873h-38.869V690.994z
		 M330.451,731.912h38.869v38.867h-38.869V731.912z M330.451,772.824h38.869v38.869h-38.869V772.824z M330.451,813.738h38.869
		v38.457h-38.869V813.738z M330.451,854.24h38.869v38.877h-38.869V854.24z M330.451,895.164h38.869v38.863h-38.869V895.164z
		 M330.451,936.074h38.869v38.869h-38.869V936.074z M289.541-208.318h38.865v38.875h-38.865V-208.318z M289.541-167.396h38.865
		v38.865h-38.865V-167.396z M289.541-126.486h38.865v38.865h-38.865V-126.486z M289.541-85.574h38.865v38.871h-38.865V-85.574z
		 M289.541-44.658h38.865v38.871h-38.865V-44.658z M289.541-3.74h38.865v38.461h-38.865V-3.74z M289.541,36.766h38.865v38.865
		h-38.865V36.766z M289.541,77.676h38.865v38.873h-38.865V77.676z M289.541,118.594h38.865v38.869h-38.865V118.594z M289.541,159.51
		h38.865v38.869h-38.865V159.51z M289.541,200.424h38.865v38.865h-38.865V200.424z M289.541,241.336h38.865v38.875h-38.865V241.336z
		 M289.541,282.256h38.865v38.867h-38.865V282.256z M289.541,323.168h38.865v38.869h-38.865V323.168z M289.541,364.082h38.865
		v38.873h-38.865V364.082z M289.541,405h38.865v38.463h-38.865V405z M289.541,445.508h38.865v38.867h-38.865V445.508z
		 M289.541,486.42h38.865v38.867h-38.865V486.42z M289.541,527.332h38.865v38.871h-38.865V527.332z M289.541,568.25h38.865v38.871
		h-38.865V568.25z M289.541,609.166h38.865v38.869h-38.865V609.166z M289.541,650.08h38.865v38.865h-38.865V650.08z
		 M289.541,690.994h38.865v38.873h-38.865V690.994z M289.541,731.912h38.865v38.867h-38.865V731.912z M289.541,772.824h38.865
		v38.869h-38.865V772.824z M289.541,813.738h38.865v38.457h-38.865V813.738z M289.541,854.24h38.865v38.877h-38.865V854.24z
		 M289.541,895.164h38.865v38.863h-38.865V895.164z M289.541,936.074h38.865v38.869h-38.865V936.074z M248.614-208.318h38.882
		v38.875h-38.882V-208.318z M248.614-167.396h38.882v38.865h-38.882V-167.396z M248.614-126.486h38.882v38.865h-38.882V-126.486z
		 M248.614-85.574h38.882v38.871h-38.882V-85.574z M248.614-44.658h38.882v38.871h-38.882V-44.658z M248.614-3.74h38.882v38.461
		h-38.882V-3.74z M248.614,36.766h38.882v38.865h-38.882V36.766z M248.614,77.676h38.882v38.873h-38.882V77.676z M248.614,118.594
		h38.882v38.869h-38.882V118.594z M248.614,159.51h38.882v38.869h-38.882V159.51z M248.614,200.424h38.882v38.865h-38.882V200.424z
		 M248.614,241.336h38.882v38.875h-38.882V241.336z M248.614,282.256h38.882v38.867h-38.882V282.256z M248.614,323.168h38.882
		v38.869h-38.882V323.168z M248.614,364.082h38.882v38.873h-38.882V364.082z M248.614,405h38.882v38.463h-38.882V405z
		 M248.614,445.508h38.882v38.867h-38.882V445.508z M248.614,486.42h38.882v38.867h-38.882V486.42z M248.614,527.332h38.882v38.871
		h-38.882V527.332z M248.614,568.25h38.882v38.871h-38.882V568.25z M248.614,609.166h38.882v38.869h-38.882V609.166z
		 M248.614,650.08h38.882v38.865h-38.882V650.08z M248.614,690.994h38.882v38.873h-38.882V690.994z M248.614,731.912h38.882v38.867
		h-38.882V731.912z M248.614,772.824h38.882v38.869h-38.882V772.824z M248.614,813.738h38.882v38.457h-38.882V813.738z
		 M248.614,854.24h38.882v38.877h-38.882V854.24z M248.614,895.164h38.882v38.863h-38.882V895.164z M248.614,936.074h38.882v38.869
		h-38.882V936.074z M207.7-208.318h38.869v38.875H207.7V-208.318z M207.7-167.396h38.869v38.865H207.7V-167.396z M207.7-126.486
		h38.869v38.865H207.7V-126.486z M207.7-85.574h38.869v38.871H207.7V-85.574z M207.7-44.658h38.869v38.871H207.7V-44.658z
		 M207.7-3.74h38.869v38.461H207.7V-3.74z M207.7,36.766h38.869v38.865H207.7V36.766z M207.7,77.676h38.869v38.873H207.7V77.676z
		 M207.7,118.594h38.869v38.869H207.7V118.594z M207.7,159.51h38.869v38.869H207.7V159.51z M207.7,200.424h38.869v38.865H207.7
		V200.424z M207.7,241.336h38.869v38.875H207.7V241.336z M207.7,282.256h38.869v38.867H207.7V282.256z M207.7,323.168h38.869v38.869
		H207.7V323.168z M207.7,364.082h38.869v38.873H207.7V364.082z M207.7,405h38.869v38.463H207.7V405z M207.7,445.508h38.869v38.867
		H207.7V445.508z M207.7,486.42h38.869v38.867H207.7V486.42z M207.7,527.332h38.869v38.871H207.7V527.332z M207.7,568.25h38.869
		v38.871H207.7V568.25z M207.7,609.166h38.869v38.869H207.7V609.166z M207.7,650.08h38.869v38.865H207.7V650.08z M207.7,690.994
		h38.869v38.873H207.7V690.994z M207.7,731.912h38.869v38.867H207.7V731.912z M207.7,772.824h38.869v38.869H207.7V772.824z
		 M207.7,813.738h38.869v38.457H207.7V813.738z M207.7,854.24h38.869v38.877H207.7V854.24z M207.7,895.164h38.869v38.863H207.7
		V895.164z M207.7,936.074h38.869v38.869H207.7V936.074z M167.193-208.318h38.459v38.875h-38.459V-208.318z M167.193-167.396h38.459
		v38.865h-38.459V-167.396z M167.193-126.486h38.459v38.865h-38.459V-126.486z M167.193-85.574h38.459v38.871h-38.459V-85.574z
		 M167.193-44.658h38.459v38.871h-38.459V-44.658z M167.193-3.74h38.459v38.461h-38.459V-3.74z M167.193,36.766h38.459v38.865
		h-38.459V36.766z M167.193,77.676h38.459v38.873h-38.459V77.676z M167.193,118.594h38.459v38.869h-38.459V118.594z M167.193,159.51
		h38.459v38.869h-38.459V159.51z M167.193,200.424h38.459v38.865h-38.459V200.424z M167.193,241.336h38.459v38.875h-38.459V241.336z
		 M167.193,282.256h38.459v38.867h-38.459V282.256z M167.193,323.168h38.459v38.869h-38.459V323.168z M167.193,364.082h38.459
		v38.873h-38.459V364.082z M167.193,405h38.459v38.463h-38.459V405z M167.193,445.508h38.459v38.867h-38.459V445.508z
		 M167.193,486.42h38.459v38.867h-38.459V486.42z M167.193,527.332h38.459v38.871h-38.459V527.332z M167.193,568.25h38.459v38.871
		h-38.459V568.25z M167.193,609.166h38.459v38.869h-38.459V609.166z M167.193,650.08h38.459v38.865h-38.459V650.08z
		 M167.193,690.994h38.459v38.873h-38.459V690.994z M167.193,731.912h38.459v38.867h-38.459V731.912z M167.193,772.824h38.459
		v38.869h-38.459V772.824z M167.193,813.738h38.459v38.457h-38.459V813.738z M167.193,854.24h38.459v38.877h-38.459V854.24z
		 M167.193,895.164h38.459v38.863h-38.459V895.164z M167.193,936.074h38.459v38.869h-38.459V936.074z M126.273-208.318h38.875
		v38.875h-38.875V-208.318z M126.273-167.396h38.875v38.865h-38.875V-167.396z M126.273-126.486h38.875v38.865h-38.875V-126.486z
		 M126.273-85.574h38.875v38.871h-38.875V-85.574z M126.273-44.658h38.875v38.871h-38.875V-44.658z M126.273-3.74h38.875v38.461
		h-38.875V-3.74z M126.273,36.766h38.875v38.865h-38.875V36.766z M126.273,77.676h38.875v38.873h-38.875V77.676z M126.273,118.594
		h38.875v38.869h-38.875V118.594z M126.273,159.51h38.875v38.869h-38.875V159.51z M126.273,200.424h38.875v38.865h-38.875V200.424z
		 M126.273,241.336h38.875v38.875h-38.875V241.336z M126.273,282.256h38.875v38.867h-38.875V282.256z M126.273,323.168h38.875
		v38.869h-38.875V323.168z M126.273,364.082h38.875v38.873h-38.875V364.082z M126.273,405h38.875v38.463h-38.875V405z
		 M126.273,445.508h38.875v38.867h-38.875V445.508z M126.273,486.42h38.875v38.867h-38.875V486.42z M126.273,527.332h38.875v38.871
		h-38.875V527.332z M126.273,568.25h38.875v38.871h-38.875V568.25z M126.273,609.166h38.875v38.869h-38.875V609.166z
		 M126.273,650.08h38.875v38.865h-38.875V650.08z M126.273,690.994h38.875v38.873h-38.875V690.994z M126.273,731.912h38.875v38.867
		h-38.875V731.912z M126.273,772.824h38.875v38.869h-38.875V772.824z M126.273,813.738h38.875v38.457h-38.875V813.738z
		 M126.273,854.24h38.875v38.877h-38.875V854.24z M126.273,895.164h38.875v38.863h-38.875V895.164z M126.273,936.074h38.875v38.869
		h-38.875V936.074z M85.357-208.318h38.869v38.875H85.357V-208.318z M85.357-167.396h38.869v38.865H85.357V-167.396z
		 M85.357-126.486h38.869v38.865H85.357V-126.486z M85.357-85.574h38.869v38.871H85.357V-85.574z M85.357-44.658h38.869v38.871
		H85.357V-44.658z M85.357-3.74h38.869v38.461H85.357V-3.74z M85.357,36.766h38.869v38.865H85.357V36.766z M85.357,77.676h38.869
		v38.873H85.357V77.676z M85.357,118.594h38.869v38.869H85.357V118.594z M85.357,159.51h38.869v38.869H85.357V159.51z
		 M85.357,200.424h38.869v38.865H85.357V200.424z M85.357,241.336h38.869v38.875H85.357V241.336z M85.357,282.256h38.869v38.867
		H85.357V282.256z M85.357,323.168h38.869v38.869H85.357V323.168z M85.357,364.082h38.869v38.873H85.357V364.082z M85.357,405
		h38.869v38.463H85.357V405z M85.357,445.508h38.869v38.867H85.357V445.508z M85.357,486.42h38.869v38.867H85.357V486.42z
		 M85.357,527.332h38.869v38.871H85.357V527.332z M85.357,568.25h38.869v38.871H85.357V568.25z M85.357,609.166h38.869v38.869
		H85.357V609.166z M85.357,650.08h38.869v38.865H85.357V650.08z M85.357,690.994h38.869v38.873H85.357V690.994z M85.357,731.912
		h38.869v38.867H85.357V731.912z M85.357,772.824h38.869v38.869H85.357V772.824z M85.357,813.738h38.869v38.457H85.357V813.738z
		 M85.357,854.24h38.869v38.877H85.357V854.24z M85.357,895.164h38.869v38.863H85.357V895.164z M85.357,936.074h38.869v38.869
		H85.357V936.074z M44.438-208.318h38.873v38.875H44.438V-208.318z M44.438-167.396h38.873v38.865H44.438V-167.396z M44.438-126.486
		h38.873v38.865H44.438V-126.486z M44.438-85.574h38.873v38.871H44.438V-85.574z M44.438-44.658h38.873v38.871H44.438V-44.658z
		 M44.438-3.74h38.873v38.461H44.438V-3.74z M44.438,36.766h38.873v38.865H44.438V36.766z M44.438,77.676h38.873v38.873H44.438
		V77.676z M44.438,118.594h38.873v38.869H44.438V118.594z M44.438,159.51h38.873v38.869H44.438V159.51z M44.438,200.424h38.873
		v38.865H44.438V200.424z M44.438,241.336h38.873v38.875H44.438V241.336z M44.438,282.256h38.873v38.867H44.438V282.256z
		 M44.438,323.168h38.873v38.869H44.438V323.168z M44.438,364.082h38.873v38.873H44.438V364.082z M44.438,405h38.873v38.463H44.438
		V405z M44.438,445.508h38.873v38.867H44.438V445.508z M44.438,486.42h38.873v38.867H44.438V486.42z M44.438,527.332h38.873v38.871
		H44.438V527.332z M44.438,568.25h38.873v38.871H44.438V568.25z M44.438,609.166h38.873v38.869H44.438V609.166z M44.438,650.08
		h38.873v38.865H44.438V650.08z M44.438,690.994h38.873v38.873H44.438V690.994z M44.438,731.912h38.873v38.867H44.438V731.912z
		 M44.438,772.824h38.873v38.869H44.438V772.824z M44.438,813.738h38.873v38.457H44.438V813.738z M44.438,854.24h38.873v38.877
		H44.438V854.24z M44.438,895.164h38.873v38.863H44.438V895.164z M44.438,936.074h38.873v38.869H44.438V936.074z M3.52-208.318
		h38.873v38.875H3.52V-208.318z M3.52-167.396h38.873v38.865H3.52V-167.396z M3.52-126.486h38.873v38.865H3.52V-126.486z
		 M3.52-85.574h38.873v38.871H3.52V-85.574z M3.52-44.658h38.873v38.871H3.52V-44.658z M3.52-3.74h38.873v38.461H3.52V-3.74z
		 M3.52,36.766h38.873v38.865H3.52V36.766z M3.52,77.676h38.873v38.873H3.52V77.676z M3.52,118.594h38.873v38.869H3.52V118.594z
		 M3.52,159.51h38.873v38.869H3.52V159.51z M3.52,200.424h38.873v38.865H3.52V200.424z M3.52,241.336h38.873v38.875H3.52V241.336z
		 M3.52,282.256h38.873v38.867H3.52V282.256z M3.52,323.168h38.873v38.869H3.52V323.168z M3.52,364.082h38.873v38.873H3.52V364.082z
		 M3.52,405h38.873v38.463H3.52V405z M3.52,445.508h38.873v38.867H3.52V445.508z M3.52,486.42h38.873v38.867H3.52V486.42z
		 M3.52,527.332h38.873v38.871H3.52V527.332z M3.52,568.25h38.873v38.871H3.52V568.25z M3.52,609.166h38.873v38.869H3.52V609.166z
		 M3.52,650.08h38.873v38.865H3.52V650.08z M3.52,690.994h38.873v38.873H3.52V690.994z M3.52,731.912h38.873v38.867H3.52V731.912z
		 M3.52,772.824h38.873v38.869H3.52V772.824z M3.52,813.738h38.873v38.457H3.52V813.738z M3.52,854.24h38.873v38.877H3.52V854.24z
		 M3.52,895.164h38.873v38.863H3.52V895.164z M3.52,936.074h38.873v38.869H3.52V936.074z"/>
</g>
<g id="Layer_5">
</g>
<g id="Layer_4">
</g>
<g id="Layer_1">
</g>
<g id="Layer_9">
</g>
<g id="Layer_8">
</g>
<g id="Layer_10">
</g>
<g id="Layer_11" display="none">
	<radialGradient id="SVGID_3_" cx="128.1245" cy="383.9336" r="76.2083" gradientUnits="userSpaceOnUse">
		<stop  offset="0" style="stop-color:#74FFE5"/>
		<stop  offset="0.2636" style="stop-color:#5EEDD4"/>
		<stop  offset="0.8104" style="stop-color:#25BEAA"/>
		<stop  offset="1" style="stop-color:#10AD9A"/>
	</radialGradient>
	<circle display="inline" fill="url(#SVGID_3_)" cx="128.125" cy="383.934" r="76.208"/>
	<radialGradient id="SVGID_4_" cx="290.4458" cy="383.9336" r="76.2083" gradientUnits="userSpaceOnUse">
		<stop  offset="0" style="stop-color:#74FFE5"/>
		<stop  offset="0.2636" style="stop-color:#5EEDD4"/>
		<stop  offset="0.8104" style="stop-color:#25BEAA"/>
		<stop  offset="1" style="stop-color:#10AD9A"/>
	</radialGradient>
	<circle display="inline" fill="url(#SVGID_4_)" cx="290.446" cy="383.934" r="76.208"/>
	<radialGradient id="SVGID_5_" cx="450.751" cy="385.9336" r="76.208" gradientUnits="userSpaceOnUse">
		<stop  offset="0" style="stop-color:#74FFE5"/>
		<stop  offset="0.2636" style="stop-color:#5EEDD4"/>
		<stop  offset="0.8104" style="stop-color:#25BEAA"/>
		<stop  offset="1" style="stop-color:#10AD9A"/>
	</radialGradient>
	<circle display="inline" fill="url(#SVGID_5_)" cx="450.751" cy="385.934" r="76.208"/>
	<radialGradient id="SVGID_6_" cx="609.04" cy="383.9336" r="76.208" gradientUnits="userSpaceOnUse">
		<stop  offset="0" style="stop-color:#74FFE5"/>
		<stop  offset="0.2636" style="stop-color:#5EEDD4"/>
		<stop  offset="0.8104" style="stop-color:#25BEAA"/>
		<stop  offset="1" style="stop-color:#10AD9A"/>
	</radialGradient>
	<circle display="inline" fill="url(#SVGID_6_)" cx="609.04" cy="383.934" r="76.208"/>
	<path display="inline" fill="none" stroke="#97BDCE" stroke-width="6" stroke-miterlimit="10" d="M611.707,459.747
		c0,10.629-0.121,20.972-0.121,31.558c0,8.496,0.129,17.165,0.129,25.544c0,7.688,0.512,15.767,5.379,21.617
		c3.916,4.707,9.899,7.312,15.669,8.88c5.434,1.475,12.246,1.654,17.856,1.654H1601"/>
	<path display="inline" fill="none" stroke="#ADD8D4" stroke-width="5" stroke-miterlimit="10" d="M128.805,308.167
		c0-10.628,0.022-21.263,0.022-31.849c0-8.498-0.146-17.313-0.146-25.691c0-7.688-0.442-15.839-4.468-21.69
		c-3.238-4.707-7.474-6.521-12.245-8.087c-4.492-1.477-10.854-1.35-15.493-1.35H-689"/>
	<path display="inline" fill="#CDDCEE" d="M653,356.255c0-10.082-8.173-18.255-18.256-18.255h-52.488
		C572.173,338,564,346.173,564,356.255v52.49c0,10.082,8.173,18.255,18.256,18.255h52.488c10.083,0,18.256-8.173,18.256-18.255
		V356.255z M647,405.93c0,8.981-6.532,16.07-15.512,16.07h-47.103c-8.979,0-15.386-7.089-15.386-16.07v-47.101
		c0-8.98,6.406-16.829,15.386-16.829h47.103c8.979,0,15.512,7.849,15.512,16.829V405.93z"/>
	<path display="inline" fill="#FCFDFF" d="M653,358.255c0-10.082-8.173-18.255-18.256-18.255h-52.488
		C572.173,340,564,348.173,564,358.255v52.49c0,10.082,8.173,18.255,18.256,18.255h52.488c10.083,0,18.256-8.173,18.256-18.255
		V358.255z M648,408.443c0,9.102-7.061,16.557-15.77,16.557H584.77c-8.709,0-15.77-7.455-15.77-16.557v-47.039
		c0-9.102,7.061-16.404,15.77-16.404h47.461c8.709,0,15.77,7.303,15.77,16.404V408.443z"/>
	
		<circle display="inline" fill="none" stroke="#FFFFFF" stroke-width="8.0657" stroke-miterlimit="10" cx="132.399" cy="384.357" r="78.976"/>
	
		<circle display="inline" fill="none" stroke="#97BDCE" stroke-width="4.089" stroke-miterlimit="10" cx="132.398" cy="384.357" r="73.26"/>
	
		<circle display="inline" fill="none" stroke="#97BDCE" stroke-width="4.089" stroke-miterlimit="10" cx="290.688" cy="384.357" r="73.26"/>
	
		<circle display="inline" fill="none" stroke="#97BDCE" stroke-width="4.089" stroke-miterlimit="10" cx="449.984" cy="384.357" r="73.26"/>
	
		<circle display="inline" fill="none" stroke="#97BDCE" stroke-width="4.089" stroke-miterlimit="10" cx="608.273" cy="384.357" r="73.259"/>
	
		<circle display="inline" fill="none" stroke="#FFFFFF" stroke-width="8.0657" stroke-miterlimit="10" cx="290.687" cy="384.357" r="78.976"/>
	
		<circle display="inline" fill="none" stroke="#FFFFFF" stroke-width="8.0657" stroke-miterlimit="10" cx="449.984" cy="384.357" r="78.976"/>
	
		<circle display="inline" fill="none" stroke="#FFFFFF" stroke-width="8.0657" stroke-miterlimit="10" cx="609.273" cy="384.357" r="78.976"/>
	<path display="inline" fill="none" stroke="#FFFFFF" stroke-width="8" stroke-miterlimit="10" d="M608.942,462.13
		c-0.373,10.633-0.196,21.204-0.034,31.839c0.131,8.496-0.246,16.961,0.083,25.454c0.282,7.295,0.933,14.987,5.8,20.838
		c3.918,4.707,11.036,8.224,16.807,9.792c5.433,1.475,11.395,1.947,17.005,1.947H1599"/>
	<path display="inline" fill="none" stroke="#FFFFFF" stroke-width="7" stroke-miterlimit="10" d="M131.746,305.974
		c0.308-10.633,0.237-21.401,0.103-32.036c-0.107-8.496,0.243-17.061-0.03-25.554c-0.232-7.296-0.751-15.037-4.776-20.888
		c-3.237-4.707-9.114-7.854-13.886-9.42c-4.492-1.477-9.411-1.576-14.049-1.576H-687"/>
	<g display="inline">
		<path fill="#FCFDFF" d="M244.479,377.048l-2.27-22.685l5.126,2.646c0,0,13.274-21.803,43.017-22.811
			c0,0,42.345-0.924,50.662,42.849l-11.342,1.765c0,0-9.074-35.791-46.378-32.263c0,0-15.375,2.017-24.197,14.618l4.789,2.521
			L244.479,377.048z"/>
		<path fill="#CDDCEE" d="M247.335,373.352c0,0,8.989-33.859,46.041-32.6c0,0,30.751,1.135,42.345,37.119l-6.049,0.941
			c0,0-8.444-33.02-41.777-32.505c0,0-17.959-0.01-28.798,14.86l3.578,1.884C262.675,363.052,255.064,365.957,247.335,373.352z"/>
		<path fill="#FCFDFF" d="M337.559,389.891l3.501,22.527c0,0-5.26-2.361-5.262-2.363c0.798,0.359-8.128,10.64-8.542,11.043
			c-7.797,7.605-19.288,12.93-30.08,13.829c-18.089,1.508-34.766-3.573-47.595-21.849c-2.08-2.964-3.585-5.979-4.958-9.174
			c-0.281-0.65-3.424-8.137-3.154-8.705c0.428-0.896,10.894-2.529,10.926-2.427c0,0,11.011,35.243,48.066,29.687
			c0,0,15.243-2.852,23.364-15.916l-4.919-2.256L337.559,389.891z"/>
		<path fill="#CDDCEE" d="M334.906,393.737c0,0-7.131,34.299-44.196,35.06c0,0-30.767,0.544-44.306-34.755l5.99-1.27
			c0,0,10.231,32.509,43.486,30.18c0,0,17.934-0.97,27.944-16.409l-3.675-1.686C320.15,404.857,327.592,401.541,334.906,393.737z"/>
		<polygon fill="#CDDCEE" points="267,372 267,407 302,407 302,372 289,372 289,380 280,380 280,372 		"/>
		<polygon fill="#FCFDFF" points="268,373 268,407 301,407 301,373 289,373 289,380 280,380 280,373 		"/>
		<path fill="#CBDFEA" d="M267.105,391.31c0,0,17.895,15.565,34.895-0.23V407h-34.838L267.105,391.31z"/>
		<polygon fill="#FCFDFF" points="303,372.259 313.186,362.135 312.188,393.81 303,405.025 		"/>
		<polyline fill="#FCFDFF" points="289,371 302.45,371 312.406,361.421 299.341,361.273 289.172,370.968 		"/>
		<polyline fill="#FCFDFF" points="267,371 280.27,371 290.226,361.421 277.16,361.273 267.081,370.968 		"/>
	</g>
	<path display="inline" fill="#9DB5BF" d="M460.258,379.805c0-5.012,3.379-9.225,7.982-10.507c-0.77-2.67-1.811-5.227-3.114-7.62
		c-1.604,0.926-3.461,1.463-5.444,1.463c-6.03,0-10.916-4.888-10.916-10.917c0-2.021,0.558-3.909,1.515-5.532
		c-2.395-1.338-4.942-2.431-7.619-3.229c-1.216,4.705-5.476,8.188-10.559,8.188c-5.142,0-9.439-3.558-10.599-8.34
		c-2.714,0.765-5.292,1.84-7.72,3.154c1.042,1.675,1.652,3.643,1.652,5.759c0,6.029-4.888,10.917-10.917,10.917
		c-2.158,0-4.164-0.635-5.858-1.714c-1.349,2.429-2.456,5.011-3.251,7.729c4.883,1.09,8.534,5.439,8.534,10.648
		c0,5.204-3.646,9.55-8.518,10.645c0.794,2.718,1.872,5.315,3.22,7.744c1.697-1.088,3.71-1.725,5.873-1.725
		c6.029,0,10.917,4.889,10.917,10.918c0,2.119-0.612,4.092-1.659,5.768c2.429,1.314,5.013,2.381,7.727,3.145
		c1.159-4.782,5.457-8.338,10.599-8.338c5.077,0,9.333,3.474,10.554,8.17c2.677-0.799,5.234-1.869,7.626-3.208
		c-0.958-1.626-1.517-3.513-1.517-5.536c0-6.029,4.886-10.918,10.916-10.918c1.981,0,3.834,0.535,5.435,1.457
		c1.304-2.395,2.365-4.939,3.134-7.611C463.644,389.035,460.258,384.82,460.258,379.805z M431.83,390.418
		c-5.861,0-10.614-4.751-10.614-10.613s4.753-10.613,10.614-10.613c5.862,0,10.614,4.751,10.614,10.613
		S437.692,390.418,431.83,390.418z"/>
	<path display="inline" fill="#FCFDFF" d="M459.125,380.088c0-5.012,3.38-9.225,7.982-10.507c-0.771-2.67-1.811-5.226-3.115-7.62
		c-1.604,0.926-3.46,1.463-5.442,1.463c-6.03,0-10.918-4.888-10.918-10.917c0-2.022,0.56-3.909,1.517-5.532
		c-2.395-1.339-4.943-2.431-7.621-3.229c-1.215,4.705-5.474,8.187-10.559,8.187c-5.141,0-9.438-3.556-10.598-8.339
		c-2.714,0.765-5.291,1.84-7.721,3.155c1.043,1.674,1.653,3.642,1.653,5.758c0,6.029-4.888,10.917-10.918,10.917
		c-2.158,0-4.163-0.635-5.858-1.715c-1.348,2.43-2.454,5.012-3.25,7.73c4.883,1.089,8.533,5.439,8.533,10.648
		c0,5.204-3.644,9.55-8.516,10.645c0.794,2.718,1.87,5.315,3.218,7.743c1.698-1.087,3.71-1.724,5.873-1.724
		c6.03,0,10.918,4.889,10.918,10.918c0,2.119-0.613,4.092-1.659,5.768c2.429,1.314,5.013,2.381,7.727,3.145
		c1.16-4.781,5.457-8.339,10.598-8.339c5.078,0,9.334,3.474,10.554,8.171c2.677-0.799,5.235-1.869,7.628-3.208
		c-0.959-1.625-1.519-3.513-1.519-5.536c0-6.029,4.888-10.918,10.918-10.918c1.98,0,3.832,0.535,5.433,1.457
		c1.305-2.395,2.366-4.939,3.135-7.611C462.511,389.318,459.125,385.104,459.125,380.088z M430.697,390.701
		c-5.862,0-10.615-4.751-10.615-10.613c0-5.861,4.753-10.613,10.615-10.613s10.613,4.752,10.613,10.613
		C441.311,385.95,436.56,390.701,430.697,390.701z"/>
	<path display="inline" fill="#FCFDFF" d="M499.01,401.158c-0.729-2.788,0.545-5.624,2.92-7.005
		c-0.814-1.374-1.765-2.646-2.838-3.789c-0.758,0.747-1.713,1.315-2.817,1.604c-3.355,0.874-6.785-1.139-7.659-4.495
		c-0.293-1.125-0.255-2.257,0.042-3.299c-1.524-0.398-3.104-0.637-4.708-0.693c0.005,2.795-1.861,5.35-4.691,6.087
		c-2.863,0.745-5.769-0.611-7.107-3.105c-1.398,0.819-2.679,1.79-3.84,2.875c0.822,0.78,1.449,1.788,1.755,2.966
		c0.874,3.355-1.138,6.784-4.494,7.658c-1.202,0.313-2.409,0.25-3.511-0.106c-0.398,1.548-0.641,3.146-0.688,4.774
		c2.875-0.104,5.537,1.791,6.293,4.689c0.752,2.897-0.646,5.845-3.199,7.159c0.836,1.397,1.811,2.688,2.915,3.844
		c0.785-0.851,1.814-1.497,3.018-1.811c3.357-0.874,6.784,1.139,7.659,4.494c0.309,1.181,0.252,2.368-0.09,3.451
		c1.545,0.38,3.137,0.599,4.759,0.631c-0.048-2.83,1.828-5.432,4.689-6.177c2.827-0.736,5.698,0.581,7.06,3.019
		c1.372-0.833,2.643-1.8,3.78-2.891c-0.77-0.767-1.354-1.735-1.649-2.862c-0.873-3.355,1.14-6.785,4.497-7.658
		c1.101-0.287,2.21-0.258,3.234,0.023c0.379-1.521,0.602-3.093,0.641-4.69C502.23,405.807,499.734,403.951,499.01,401.158z
		 M484.725,411.186c-3.264,0.85-6.596-1.106-7.445-4.369c-0.85-3.262,1.105-6.596,4.369-7.445s6.596,1.106,7.446,4.369
		C489.942,407.003,487.986,410.336,484.725,411.186z"/>
	
		<ellipse transform="matrix(0.9678 -0.2518 0.2518 0.9678 -86.4645 134.7302)" display="inline" fill="none" stroke="#CBDFEA" stroke-width="3.4814" stroke-miterlimit="10" cx="483.115" cy="405.154" rx="7.74" ry="7.629"/>
	<g display="inline">
		<path fill="#FCFDFF" d="M163.942,383.188H147.86v16.476h-19.384v-16.476h-16.082v-19.841h16.082v-16.476h19.384v16.476h16.082
			V383.188z"/>
	</g>
	<g display="inline">
		<path fill="#FF2A3D" d="M163.113,383.188h-16.469v16.476h-19.852v-16.476h-16.467v-19.841h16.467v-16.476h19.852v16.476h16.469
			V383.188z"/>
	</g>
	<radialGradient id="SVGID_7_" cx="430.6973" cy="379.8047" r="13.9746" gradientUnits="userSpaceOnUse">
		<stop  offset="0" style="stop-color:#FFFFFF"/>
		<stop  offset="0.2947" style="stop-color:#EBF3F7"/>
		<stop  offset="0.7292" style="stop-color:#D4E4EE"/>
		<stop  offset="1" style="stop-color:#CBDFEA"/>
	</radialGradient>
	<path display="inline" fill="url(#SVGID_7_)" d="M430.697,365.831c-7.717,0-13.975,6.256-13.975,13.974
		c0,7.719,6.258,13.975,13.975,13.975s13.975-6.256,13.975-13.975C444.672,372.087,438.414,365.831,430.697,365.831z
		 M430.697,388.339c-4.713,0-8.534-3.819-8.534-8.534c0-4.713,3.821-8.533,8.534-8.533s8.534,3.82,8.534,8.533
		C439.231,384.52,435.41,388.339,430.697,388.339z"/>
	<path display="inline" fill="#FFFFFF" d="M79.289,411.074c-0.027,1.713,0.844,3.551,1.535,4.994c1.202,2.512,2.318,4.992,3.36,7.58
		c0.68,1.686,1.432,3.344,2.138,5.02c0.935,2.215,1.944,4.395,2.789,6.635c1.857-0.324,3.968-2.112,5.545-3.135
		c1.747-1.135,3.466-2.314,5.238-3.41c3.792-2.344,7.583-4.688,11.374-7.032c0.715-0.441,1.428-0.884,2.143-1.325
		c1.856-1.147,5.152-0.461,7.262-0.708c7.131-0.833,14.251-1.771,21.362-2.755c2.104-0.292,4.207-0.592,6.309-0.908
		c3.833-0.576,7.904-0.969,11.34-2.906c1.856-1.046,3.361-2.568,4.982-3.927c1.727-1.446,3.57-2.745,5.313-4.172
		c4.023-3.296,8.08-6.56,12.164-9.778c0.9-0.709,1.789-1.434,2.684-2.15c0.562-0.451,0.785-1.82,0.82-2.458
		c0.104-1.844-1.117-3.264-2.788-3.958c-1.568-0.652-3.026-0.088-4.391,0.763c-2.224,1.387-4.427,2.826-6.703,4.126
		c-3.05,1.819-6.025,3.761-9.04,5.637c-1.468,0.913-2.959,1.783-4.44,2.67c-1.243,0.744-2.337,1.822-3.692,2.359
		c-1.195,0.474-2.52,0.564-3.787,0.678c-3.822,0.344-7.752,0.979-11.592,0.979c-4.617,0.318-9.243,0.532-13.871,0.631
		c0,0-3.865,0.673-1.849-2.52c0,0,15.732-7.531,15.796-7.563c2.182-1.044,4.528-3.752,4.016-6.314
		c-0.47-2.352-2.895-3.248-5.033-3.063c-1.925,0.167-4.025,0.585-5.87,1.145c-3.938,1.255-7.902,2.468-11.899,3.517
		c-6.333,1.662-13.254,1.67-19.225,4.539c-4.253,2.042-7.754,7.443-11.643,10.092c-3.175,2.163-7.053,2.766-9.567,4.398
		C79.318,409.238,79.303,410.252,79.289,411.074z"/>
	<g display="inline">
		<defs>
			<filter id="Adobe_OpacityMaskFilter" filterUnits="userSpaceOnUse" x="79.32" y="390.155" width="105.355" height="44.78">
				<feFlood  style="flood-color:white;flood-opacity:1" result="back"/>
				<feBlend  in="SourceGraphic" in2="back" mode="normal"/>
			</filter>
		</defs>
		<mask maskUnits="userSpaceOnUse" x="79.32" y="390.155" width="105.355" height="44.78" id="SVGID_8_">
			<g filter="url(#Adobe_OpacityMaskFilter)">
				<image overflow="visible" width="110" height="49" xlink:href="9353B0FB.jpg"  transform="matrix(1 0 0 1 77 388)">
				</image>
			</g>
		</mask>
		<g mask="url(#SVGID_8_)">
			<path fill="#CBDDE7" d="M79.32,410.971l4.223-3.929c0,0,15.123,7.813,41.715,7.436c0,0,15.282,0.487,27.007-3.821
				c0.101-0.037,0.198-0.074,0.299-0.11c11.762-4.428,27.473-16.694,31.337-20.391c0,0,1.744,0.755,0,2.835
				c0,0-18.23,15.564-25.624,20.521c0,0-23.567,5.251-43.92,5.691c0,0-22.643,13.023-25.227,15.732
				C89.13,434.936,79.866,412.439,79.32,410.971z"/>
		</g>
	</g>
	<path display="inline" fill="#FCFDFF" d="M609.073,398.365c-0.337-0.402-0.796-0.85-1.378-1.334
		c0.076,5.842,0.166,11.234,0.271,15.363c0.247,0.26,0.524,0.518,0.835,0.771C608.906,409.253,608.996,404.061,609.073,398.365z
		 M607.334,355.646c0.018,2.726,0.047,7.793,0.091,13.938c0.208,0.033,0.413,0.066,0.624,0.101c0.411,0.064,0.846,0.132,1.311,0.209
		c0.043-6.282,0.073-11.474,0.092-14.247c0.762-0.387,1.286-1.177,1.286-2.091c0-1.296-1.051-2.345-2.345-2.345
		c-1.293,0-2.344,1.049-2.344,2.345C606.049,354.47,606.572,355.26,607.334,355.646z M608.393,420.408
		c0.127,0,0.24-1.908,0.344-5.08c-0.237-0.115-0.472-0.234-0.697-0.363C608.143,418.355,608.258,420.408,608.393,420.408z
		 M605.739,408.545c0.103-1.42,0.634-2.396,1.337-3.137c-0.014-0.694-0.022-1.408-0.037-2.137c-1.439,1.228-2.576,2.696-2.671,4.393
		c-0.233,4.339,3.395,6.714,6.206,7.58C607.088,413.318,605.551,411.117,605.739,408.545z M606.98,392.85
		c-3.613-2.331-3.938-4.292-2.783-5.654c0.563-0.662,1.5-1.207,2.617-1.701c-0.006-0.898-0.016-1.803-0.023-2.701
		c-1.727,0.721-3.33,1.486-4.199,2.267c-3.621,3.237-0.645,7.117,2.396,9.098c5.314,3.456,6.508,5.459,4.79,7.078
		c-0.007,0.772-0.021,1.536-0.036,2.279c0.021-0.011,0.037-0.022,0.059-0.031C612.264,401.979,615.899,398.61,606.98,392.85z
		 M617.518,362.835c-1.764-1.133-4.791-1.14-7.358-0.87c-0.007,1.039-0.016,2.156-0.02,3.334c0.997-0.111,2.032-0.153,3.052-0.111
		c0,1.776,2.315,2.238,4.306,2.141C620.296,367.195,620.431,364.696,617.518,362.835z M615.717,364.761
		c-0.346,0-0.629-0.28-0.629-0.626c0-0.348,0.283-0.627,0.629-0.627c0.345,0,0.626,0.279,0.626,0.627
		C616.343,364.48,616.062,364.761,615.717,364.761z M611.775,371.078c-4.169-0.795-6.662-0.951-8.218-1.63
		c-2.21-0.958-0.238-2.532,3.094-3.479c-0.005-1.211-0.014-2.358-0.021-3.438c-4.69,1.172-12.333,5.755-5.447,9.198
		c1.345,0.675,3.69,1.315,7.981,1.744c5.177,0.516,7.692,3.619,4.351,6.378c-0.567,0.47-1.921,1.035-3.504,1.663
		c-0.011,0.918-0.021,1.839-0.025,2.769c1.905-0.695,3.882-1.43,5.366-2.458C619.98,378.613,618.959,372.44,611.775,371.078z
		 M609.325,374.242c-0.081-0.01-0.155-0.018-0.233-0.027c-0.566-0.055-1.111-0.117-1.635-0.184
		c0.05,5.797,0.107,12.203,0.183,18.358c0.53,0.354,1.034,0.702,1.499,1.055C609.215,387.045,609.276,380.316,609.325,374.242z"/>
	<rect x="591" y="436" display="inline" fill="#FFFEFE" width="36" height="3"/>
	<rect x="599" y="429" display="inline" fill="#FFFEFE" width="19" height="7"/>
	<path display="inline" fill="#CDDCEE" d="M599,429v7h19.02c0,0-18.158-0.224-18.158-7.028"/>
</g>
</svg>
