<?xml version="1.0" encoding="utf-8"?>
<!-- Generator: Adobe Illustrator 22.1.0, SVG Export Plug-In . SVG Version: 6.00 Build 0)  -->
<svg version="1.1" id="Layer_1" xmlns="http://www.w3.org/2000/svg" xmlns:xlink="http://www.w3.org/1999/xlink" x="0px" y="0px"
	 viewBox="0 0 400 330" style="enable-background:new 0 0 400 330;" xml:space="preserve">
<style type="text/css">
	.st0{fill-rule:evenodd;clip-rule:evenodd;fill:#EFC94B;}
	.st1{fill:#EFC94B;}
</style>
<g>
	<path class="st0" d="M166.8,76.9h83.8c2.7,0,4.8,2.2,4.8,4.8l0,0c0,2.7-2.2,4.8-4.8,4.8h-83.8c-2.7,0-4.8-2.2-4.8-4.8l0,0
		C162,79,164.2,76.9,166.8,76.9z"/>
	<path class="st1" d="M157.4,74.1c-0.3-7.4-2.3-11.6-4.7-13.5c-0.2-0.1-0.4-0.3-0.6-0.4V50c2.3,0.4,4.5,1.3,6.6,3
		c5.2,4.2,9.3,13.2,8.1,29h0c0,0.5-0.2,1-0.4,1.5c-1,2.5-3.9,3.6-6.3,2.6c-3-1.3-5.7-2.6-8.1-3.9V70.7
		C153.5,71.8,155.3,73,157.4,74.1z M152.1,60.2c-1.4-0.8-2.8-0.8-3.8-0.2c-1.1,0.7-1.7,2-1.3,3.8c0.5,2,2,4.4,5.1,6.9v11.6
		C143,77,138.8,71.1,137.6,66c-1.5-6.3,1.3-11.6,5.8-14.3c2.6-1.5,5.6-2.2,8.8-1.7V60.2z"/>
	<path class="st1" d="M153.1,81.3c-3.3-1.5-6-2.4-8.4-2.7V69c5.3,0.5,11.8,2.7,19.6,7.5c0.5,0.3,1,0.7,1.4,1.2
		c1.7,2.1,1.4,5.1-0.6,6.8c-7.9,6.6-14.8,9.8-20.3,10.8v-9.8C147.1,84.7,149.9,83.4,153.1,81.3z M144.8,78.6
		c-2.4-0.3-4.4-0.1-5.8,0.5c-1.8,0.8-2.6,2.2-2.5,3.6c0.1,1.3,1,2.5,2.7,3c1.5,0.4,3.3,0.3,5.6-0.3v9.8c-3.1,0.5-5.8,0.4-8-0.2
		c-6.3-1.6-9.7-6.6-10-11.8c-0.3-5.1,2.4-10.5,8.4-13c2.6-1.1,5.8-1.6,9.7-1.3V78.6z"/>
	<path class="st1" d="M156.4,80c0.7-2.6,3.3-4.1,5.9-3.4c2.6,0.7,4.1,3.3,3.4,5.9c-2.1,7.8-10.3,14.3-20.6,18
		c-9.6,3.5-21.3,4.7-31.7,2.2c-2.6-0.6-4.2-3.2-3.6-5.8c0.6-2.6,3.2-4.2,5.8-3.6c8.4,2,18.1,1,26.1-1.9
		C149.4,88.7,155.2,84.5,156.4,80z"/>
	<path class="st1" d="M156.3,81.1c0.1-2.7,2.3-4.8,5-4.7c2.7,0.1,4.8,2.3,4.7,5c0,0.5,0,0.9-0.1,1.2c-0.9,7.9-8.8,18.1-20,25.8
		c-10.9,7.5-25.1,13.2-39.2,12.7c-1.3,0-2.6-0.1-3.8-0.3c-2.7-0.3-4.6-2.7-4.3-5.3c0.3-2.7,2.7-4.6,5.3-4.3c1.1,0.1,2.1,0.2,3,0.2
		c11.8,0.4,23.9-4.5,33.4-11c9-6.3,15.3-13.7,15.9-18.9C156.3,81.3,156.3,81.1,156.3,81.1z"/>
	<g>
		<path class="st0" d="M270.3,100.4h54.6c2,0,3.7,1.7,3.7,3.7l0,0c0,2-1.7,3.7-3.7,3.7h-47.1C275.4,105.3,272.9,102.8,270.3,100.4z"
			/>
		<path class="st0" d="M371.8,193.5c0,38.8-35.4,70.3-79.1,70.3c-0.3,0-0.6,0-1,0c8.1-8.2,14.9-17.8,19.8-28.6
			c5.3-11.7,8-24.3,8-37.2c0-27.1-15.2-57.3-31.5-78.2c-2.3-3-4.8-5.9-7.3-8.8h38.8C348.7,127.3,371.8,166.4,371.8,193.5
			L371.8,193.5z M263.9,94.9c-1.2-1.9-2.1-3.9-2.9-5.8c1.5-2.1,2.3-4.6,2.3-7.4c0-2.6-0.8-5-2.1-7c4.6-4.8,16.9,0.2,31.3,0.2
			c18.4,0,33.3-7.3,33.3,6.2c0,5-2.2,10.8-5.9,16.2h-53.2C265.9,96.5,264.9,95.7,263.9,94.9z"/>
		<path class="st1" d="M259.5,90.9c0.1,0.2,0.1,0.4,0.2,0.6l-0.5-0.3C259.3,91.1,259.4,91,259.5,90.9z"/>
	</g>
	<g>
		<path class="st0" d="M80.7,100.4h21.4c0.2,1,0.5,2,0.9,2.9c-3.7,0.1-7.1,1.9-9.4,4.6H80.7c-2,0-3.7-1.7-3.7-3.7l0,0
			C77,102,78.7,100.4,80.7,100.4z"/>
		<path class="st0" d="M125,263c-3.9,0.5-7.9,0.8-12,0.8c-43.7,0-79.1-31.5-79.1-70.3c0-27.1,23.1-66.2,52.3-82.6h5.5
			c-0.5,1.2-0.9,2.4-1,3.7c-0.8,7,4.3,13.3,11.3,14.1c1.5,0.2,2.9,0.3,4.4,0.3c5.9,0.2,11.8-0.5,17.6-2
			C109.9,147.3,98,173.9,98,197.9c0,12.9,2.8,25.5,8,37.2C110.8,245.6,117.2,255,125,263L125,263z M85.8,97.3
			c-3.8-5.5-6.1-11.4-6.1-16.2c0-14.2,14.9-6.2,33.3-6.2c2.5,0,5-0.1,7.4-0.3c-1.2,2.8-1.7,5.9-1.6,9.2c0,0.7,0.1,1.5,0.2,2.2
			c-0.5-0.1-0.9-0.2-1.4-0.3c-6.8-1.6-13.8,2.6-15.4,9.5c-0.2,0.7-0.3,1.5-0.3,2.2H85.8z"/>
		<path class="st1" d="M73.4,98.3c-0.3-5.7-1.8-8.9-3.6-10.4c-0.1-0.1-0.3-0.2-0.4-0.3v-7.8c1.7,0.3,3.5,1,5.1,2.3
			c4,3.2,7.2,10.2,6.3,22.4h0c0,0.4-0.1,0.8-0.3,1.2c-0.8,1.9-3,2.8-4.9,2c-2.3-1-4.4-2-6.2-3v-8.9C70.5,96.5,71.8,97.4,73.4,98.3z
			 M69.4,87.5c-1-0.6-2.1-0.6-2.9-0.1c-0.8,0.5-1.3,1.6-1,2.9c0.4,1.6,1.6,3.4,3.9,5.3v8.9c-7-4.1-10.3-8.6-11.2-12.5
			c-1.1-4.9,1-8.9,4.5-11c2-1.2,4.3-1.7,6.7-1.3V87.5z"/>
		<path class="st1" d="M70.2,103.8c-2.5-1.2-4.7-1.8-6.4-2.1v-7.4c4.1,0.4,9.1,2.1,15,5.8c0.4,0.2,0.8,0.5,1.1,0.9
			c1.3,1.6,1.1,3.9-0.5,5.3c-6.1,5.1-11.4,7.5-15.7,8.3v-7.6C65.5,106.4,67.7,105.4,70.2,103.8z M63.7,101.7
			c-1.9-0.3-3.4-0.1-4.5,0.4c-1.4,0.6-2,1.7-1.9,2.7c0.1,1,0.8,1.9,2.1,2.3c1.1,0.3,2.6,0.3,4.3-0.2v7.6c-2.4,0.4-4.4,0.3-6.2-0.1
			c-4.9-1.3-7.5-5.1-7.7-9.1c-0.2-3.9,1.9-8,6.4-10c2-0.9,4.5-1.3,7.4-1V101.7z"/>
		<path class="st1" d="M72.7,102.7c0.5-2,2.6-3.2,4.6-2.6c2,0.5,3.2,2.6,2.6,4.6c-1.6,6-7.9,11-15.9,13.9
			c-7.4,2.7-16.4,3.6-24.4,1.7c-2-0.5-3.2-2.5-2.8-4.5c0.5-2,2.5-3.2,4.5-2.8c6.5,1.5,13.9,0.8,20.1-1.5
			C67.3,109.5,71.8,106.2,72.7,102.7z"/>
		<path class="st1" d="M72.6,103.6c0.1-2.1,1.8-3.7,3.8-3.6c2.1,0.1,3.7,1.8,3.6,3.8c0,0.4,0,0.7-0.1,0.9
			c-0.7,6.1-6.8,13.9-15.4,19.9c-8.4,5.8-19.3,10.1-30.1,9.8c-1,0-2-0.1-2.9-0.2c-2-0.2-3.5-2.1-3.3-4.1c0.2-2,2.1-3.5,4.1-3.3
			c0.8,0.1,1.6,0.1,2.3,0.2c9.1,0.3,18.4-3.5,25.7-8.5c7-4.8,11.8-10.5,12.2-14.6C72.6,103.8,72.6,103.6,72.6,103.6z"/>
	</g>
	<g>
		<path class="st1" d="M244.3,72.9c4.8-7,7.7-14.5,7.7-21c0-17.6-19.4-8.1-43.2-8.1c-23.9,0-43.2-10.4-43.2,8.1c0,6.3,3,13.9,7.9,21
			H244.3z"/>
		<path class="st1" d="M243.6,90.6h-69.7c-38,21.3-68,72.2-68,107.3c0,50.4,46,91.3,102.8,91.3c56.8,0,102.8-40.9,102.8-91.3
			C311.6,162.7,281.5,111.8,243.6,90.6z M244.5,163.8c-2.1,3.1-4.1,6.2-6.2,9.3c-0.2,0.3-0.4,0.4-0.7,0.4c-3.7,0-7.5,0-11.2,0
			c-0.2,0-0.4,0-0.6,0c-0.2,0.8-0.3,1.6-0.5,2.4c-1.5,6.5-5.1,11.7-10.4,15.8c-5,3.8-10.6,6.1-16.7,7.2c-1.9,0.4-3.9,0.5-5.8,0.8
			c-0.3,0-0.5,0.1-0.9,0.1c13.4,16.7,26.7,33.3,40.1,50c-0.2,0-0.3,0-0.4,0c-5.5,0-10.9,0-16.4,0c-0.2,0-0.5-0.1-0.6-0.3
			c-12.7-15.9-25.4-31.7-38.1-47.6c-0.3-0.3-0.4-0.7-0.4-1.1c0-2.7,0-5.5,0-8.2c0-0.2,0-0.4,0-0.7c0.3,0,0.5,0,0.7,0
			c3.9,0,7.8,0.1,11.8-0.1c5-0.2,9.8-1.2,14.1-3.7c4.6-2.6,7.7-6.4,8.9-11.6c0.2-1,0.3-2,0.4-3.1c-13.2,0-26.3,0-39.5,0
			c0.1-0.2,0.2-0.4,0.3-0.6c2-3,4.1-6.1,6.1-9.1c0.2-0.3,0.4-0.4,0.8-0.4c10,0,20.1,0,30.1,0c0.2,0,0.4,0,0.8,0
			c-0.4-0.7-0.7-1.3-1-1.9c-2.1-3.5-5.2-5.6-9-6.9c-3.3-1.1-6.8-1.6-10.3-1.7c-5.7-0.1-11.4-0.1-17.1-0.2c-0.2,0-0.4,0-0.7,0
			c0.2-0.2,0.3-0.4,0.4-0.6c2-3,4-6.1,6-9.1c0.1-0.2,0.2-0.3,0.3-0.5c22.1,0,44.1,0,66.2,0c-0.1,0.1-0.1,0.3-0.2,0.4
			c-2.1,3.1-4.1,6.2-6.2,9.3c-0.2,0.3-0.4,0.4-0.8,0.4c-5.4,0-10.9,0-16.3,0c-0.2,0-0.4,0-0.8,0c2.7,3.1,4.3,6.7,5.1,10.6
			c6.4,0,12.8,0,19.2,0C244.7,163.6,244.6,163.7,244.5,163.8z"/>
	</g>
</g>
</svg>
