<?xml version="1.0" encoding="utf-8"?>
<!-- Generator: Adobe Illustrator 22.1.0, SVG Export Plug-In . SVG Version: 6.00 Build 0)  -->
<svg version="1.1" id="Layer_1" xmlns="http://www.w3.org/2000/svg" xmlns:xlink="http://www.w3.org/1999/xlink" x="0px" y="0px"
	 viewBox="0 0 400 330" style="enable-background:new 0 0 400 330;" xml:space="preserve">
<style type="text/css">
	.st0{fill:#FDB6C7;}
</style>
<g>
	<path class="st0" d="M180.6,86.8c-13.9,13.9-27.7,27.9-41.2,41.3c-8.5-8.5-16.9-17-24.8-25c28.4-28.4,57.1-57.2,85.6-85.6
		c28.2,28.2,56.8,56.8,85,85c-8.1,8-16.6,16.4-25.5,25.1c-12.5-12.9-26.4-27-40.2-41.2c-0.6,0.3-1.2,0.6-1.8,0.8c0,28.2,0,56.4,0,85
		c-12,0-23,0-35,0c0-28.4,0-56.6,0-84.8C182,87.3,181.3,87.1,180.6,86.8z"/>
	<path class="st0" d="M43.1,273.3c17.4,16.6,65.9,17.7,86.7,0.6c0,7.8,0.6,15.1-0.3,22.2c-0.4,2.9-3.4,6.5-6.2,7.9
		c-6.1,2.9-12.7,5.5-19.3,6.6c-16.3,2.9-32.6,2.5-48.3-3.5c-10.7-4.1-12.6-7.1-12.6-18.6C43.1,283.8,43.1,279,43.1,273.3z"/>
	<path class="st0" d="M270,273.6c18.9,16.7,67.5,17,86.8-0.1c0,7.5,0.9,14.6-0.4,21.4c-0.7,3.7-4.6,8.2-7.9,9.8
		c-10.4,5.1-21.3,6.1-32.2,7.2c-12.5,1.3-25-0.6-36.8-6c-6.7-3.1-10.5-7.6-9.7-15.5C270.4,285.3,270,280,270,273.6z"/>
	<path class="st0" d="M243.4,229.3c0,6.5-0.5,12,0.1,17.4c0.8,8-2.9,12.8-9.7,15.5c-22.5,9.1-45.2,9.1-67.7,0
		c-6.7-2.7-10.5-7.6-9.7-15.5c0.5-5.4,0.1-10.9,0.1-17.3c12.6,11.8,27.9,13.4,43.1,13.4C215,242.8,230.3,241.3,243.4,229.3z"/>
	<path class="st0" d="M129.8,187.5c0,6.7,0.7,14.1-0.3,21.2c-0.4,3.1-3.7,7-6.6,8.3c-6.8,3.1-14.1,5.7-21.4,6.8
		c-15.6,2.4-31.2,1.8-46.1-4c-10.2-4-12.3-7.3-12.3-18.1c0-4.9,0-9.9,0-14.4C72,203.4,100.6,203.5,129.8,187.5z"/>
	<path class="st0" d="M243.4,272.8c0,8.3,0.6,15.4-0.3,22.3c-0.4,3.2-3.3,7.2-6.2,8.6c-6.2,3.1-13,5.7-19.9,6.9
		c-16,2.8-32.1,2.4-47.5-3.4c-10.9-4.1-13-7.3-13-18.9c0-4.7,0-9.5,0-15.3c12.8,11.5,27.9,13.2,43.3,13.1
		C214.9,286.1,230.1,284.9,243.4,272.8z"/>
	<path class="st0" d="M129.9,231.3c0,6.6,1,13.6-0.4,20.2c-0.8,3.9-4.7,8.3-8.4,10.1c-13.4,6.9-28.1,8.4-42.8,6.6
		c-8.8-1.1-17.5-3.6-26-6.4c-6.7-2.2-9.9-7.5-9.3-15c0.4-5.4,0.1-10.8,0.1-16C71.9,247.3,100.3,247,129.9,231.3z"/>
	<ellipse class="st0" cx="86.5" cy="175.1" rx="41.5" ry="12.2"/>
	<ellipse class="st0" cx="197.8" cy="215.4" rx="41.5" ry="12.2"/>
	<ellipse class="st0" cx="311.3" cy="258.6" rx="41.5" ry="12.2"/>
</g>
</svg>
