<?xml version="1.0" encoding="utf-8"?>
<!-- Generator: Adobe Illustrator 22.1.0, SVG Export Plug-In . SVG Version: 6.00 Build 0)  -->
<svg version="1.1" id="Layer_1" xmlns="http://www.w3.org/2000/svg" xmlns:xlink="http://www.w3.org/1999/xlink" x="0px" y="0px"
	 viewBox="0 0 400 330" style="enable-background:new 0 0 400 330;" xml:space="preserve">
<style type="text/css">
	.st0{fill:#8FEAAF;}
</style>
<g>
	<path class="st0" d="M37.6,290c-10.6,0.2-19.4-8.1-19.8-18.7c-0.7-20.1-1.4-41.3-2.1-62.4c-0.1-2.2,1.1-4.4,3.1-5.4
		c0.3-0.2,0.6-0.2,0.9-0.2c32,3.9,51,7.6,86.9-22.4c0.2-0.2,0.4-0.3,0.6-0.4c20.4-13.5,49.9-4.7,74.5-12.5
		c26-8.2,50.4-28.4,76.5-36.2c8.4-2.5,18.8-4.2,26.6-1.4c16.6,5.9,19.1,24.6,5.2,34.9c-0.4,0.3-0.7,0.5-1.1,0.6
		c-18.2,7.9-33.6,20.3-49.9,30.1c-0.2,0.1-0.4,0.2-0.5,0.3c-4.5,2.1-8.2,4.5-11.3,7.2c-13.7,12.1-4.1,35.1,14.2,34
		c22.4-1.3,39-10.2,54.7-31.3c16.3-22,37.1-50.4,63.6-63.6c0.4-0.2,8.3-4.4,8.7-4.5c10.5-1.9,19.3,8.5,15.1,18.4
		c-2.7,6.3-27.4,30.6-30.5,36c-11.8,20.6-24.3,40.9-37.1,60.9c-5.1,8-15.9,18.7-24,23.6c-13.7,8.4-28.4,15.4-41.1,25
		c-25.2,19.1-52.2,19.6-81,12.4c-32.8-8.2-65.5-16.7-98.7-23C60.2,289.6,49.3,289.7,37.6,290z"/>
	<path class="st0" d="M151.7,51.6c12.4-32.8,47.8-48.7,80.2-36c31.1,12.1,46.9,47.3,35.4,78.6c-12.1,32.8-47.5,49.1-79.9,36.8
		C155.5,118.7,139.6,83.5,151.7,51.6z M159.1,54c-10.5,27.7,3.5,59.2,31.1,69.6c27.6,10.5,59-3.7,69.6-31.3
		c10.6-27.5-3.5-58.9-31.2-69.7C201.4,12,169.6,26.4,159.1,54z"/>
	<path class="st0" d="M209.8,30.9c-23.4,0-42.4,19-42.4,42.4c0,23.4,19,42.4,42.4,42.4s42.4-19,42.4-42.4
		C252.2,49.8,233.2,30.9,209.8,30.9z M220.9,54.2c4,0,8,0,12,0c-0.1,0.1-0.1,0.2-0.2,0.3c-1.3,1.9-2.6,3.8-3.8,5.8
		c-0.1,0.2-0.3,0.3-0.5,0.3c-2.3,0-4.7,0-7,0c-0.1,0-0.3,0-0.4,0c-0.2,0.7-0.3,1.4-0.4,2c-1,3.9-3.2,6.9-6.4,9.4
		c-3.1,2.4-6.6,3.8-10.4,4.5c-1.4,0.3-2.7,0.4-4.1,0.6c0,0.1,0.1,0.1,0.2,0.2c7.9,9.8,15.8,19.7,23.6,29.5c0.4,0.5,0.8,1,1.2,1.5
		c-3.6,0-7.2,0-10.8,0c-0.6-0.8-1.2-1.5-1.8-2.3c-7.4-9.2-14.8-18.5-22.2-27.7c-0.2-0.2-0.2-0.4-0.2-0.7c0-1.7,0-3.4,0-5.1
		c0-0.1,0-0.3,0-0.4c0.2,0,0.3,0,0.4,0c2.5,0,4.9,0,7.4-0.1c3.1-0.1,6.1-0.8,8.9-2.3c2.8-1.6,4.8-4,5.5-7.2c0.1-0.6,0.2-1.3,0.3-1.9
		c-8.2,0-16.4,0-24.7,0c0.1-0.2,0.2-0.3,0.2-0.3c1.3-1.9,2.5-3.8,3.8-5.7c0.1-0.2,0.3-0.3,0.6-0.3c6.3,0,12.5,0,18.8,0
		c0.1,0,0.3,0,0.5,0c-0.1-0.3-0.2-0.5-0.3-0.7c-1.3-2.5-3.4-4-6-4.8c-2.1-0.7-4.2-1-6.4-1c-3.6-0.1-7.1-0.1-10.7-0.1
		c-0.1,0-0.3,0-0.4,0c0.1-0.1,0.1-0.2,0.2-0.3c1.3-1.9,2.5-3.8,3.8-5.7c0.1-0.2,0.3-0.3,0.5-0.3c13.6,0,27.1,0,40.7,0
		c0.1,0,0.2,0,0.3,0c-0.1,0.1-0.1,0.2-0.2,0.3c-1.3,1.9-2.5,3.8-3.8,5.7c-0.1,0.2-0.3,0.3-0.5,0.3c-3.4,0-6.8,0-10.2,0
		c-0.1,0-0.3,0-0.5,0C219.4,49.5,220.4,51.7,220.9,54.2z"/>
</g>
</svg>
