<?xml version="1.0" encoding="utf-8"?>
<!-- Generator: Adobe Illustrator 22.1.0, SVG Export Plug-In . SVG Version: 6.00 Build 0)  -->
<svg version="1.1" id="Layer_1" xmlns="http://www.w3.org/2000/svg" xmlns:xlink="http://www.w3.org/1999/xlink" x="0px" y="0px"
	 viewBox="0 0 400 330" style="enable-background:new 0 0 400 330;" xml:space="preserve">
<style type="text/css">
	.st0{fill-rule:evenodd;clip-rule:evenodd;fill:#FDB6C8;}
	.st1{fill:#FDB6C8;}
	.st2{fill:#FFFFFF;}
</style>
<g>
	<path class="st2" d="M185.4,237c0-3.9,0-7,0-10.3c-7.7-1.5-15.5-3.1-23.3-4.5c-18-3.4-32.2-12.2-41.1-28.6c-1.7-3.2-3.2-6.6-4.4-10
		c-3.6-10.4,5.1-20.3,15.9-17.8c2.9,0.6,6.1,1.9,8.2,3.9c12,12,26.8,14,42.7,12.7c5.7-0.5,11.3-1.1,17-1.7c4.4-0.5,7.8,1.7,8.4,5.6
		c0.6,4-2.1,7.4-6.7,7.8c-10,0.9-19.9,1.7-30,2.6c8.3,2,16.7,3.6,25.3,2.8c7.7-0.7,15-2.7,21.6-6.8c1.1-0.7,2.6-0.9,3.9-0.9
		c22.4,0,44.9-0.1,67.3,0c6.3,0,9.7,3.3,10,9.6c0.1,2.5,0,5,0,7.9c2.6,0,4.8,0,7.1,0c8.1,0,16.2,0,24.3,0c6,0,10.1,3.7,10.2,9.1
		c0.1,5.5-3.9,9.5-10.1,9.6c-9,0.1-18,0-27,0c-1.3,0-2.7,0-4.2,0c0,2.7,0,5.1,0,7.9c1.1,0.1,2.3,0.2,3.5,0.2c15.5,0,31,0,46.5,0.1
		c2.1,0,4.4,0.2,6.4,0.9c4.3,1.5,6.8,6.1,6.1,10.7c-0.8,4.9-4.5,8.4-9.6,8.6c-6,0.2-12.1,0.1-18.1,0.1c-11.5,0-23,0-34.7,0
		c-0.1,1.2-0.1,2.1-0.2,3.5c1.6,0,2.9,0,4.2,0c19.3,0,38.5,0,57.8,0c1.4,0,2.7,0,4.1,0.1c6.5,0.7,8.2,2.7,8.2,9.1
		c0,14.8,0,29.6,0,44.4c0,6.2-1.7,6.6-7.7,6.1c-2.4-0.2-2.9-2.2-2.9-4.3c0-5.4,0-10.7,0-16.1c0-1.1,0-2.2,0-3.6
		c-21.2,0-42.2,0-63.6,0c0,8.3,0,16.6,0,25c-38.5,0-76.6,0-115,0c0-8.4,0-16.7,0-25.1c-34.6,0-68.8,0-103.5,0c0,6.1,0,12.2,0,18.4
		c0,5-0.9,5.9-5.7,5.8c-4,0-5.1-1.1-5.1-5.4c-0.1-15.8-0.1-31.7-0.2-47.5c0-3.2,1.5-5,4.2-5.8c2.4-0.7,4.9-1,7.4-1
		c32.7-0.1,65.4,0,98.1,0c1,0,2.1,0.1,3.1-0.1c0.7-0.2,1.3-0.8,2-1.2c-0.6-0.6-1.2-1.5-1.9-1.6c-7.4-0.7-14.8-1.1-22.1-2
		c-14.2-1.9-28.1-4.7-40.5-12.3c-11-6.7-18.3-16.9-25.1-27.5c-10.8-16.8-19.3-34.8-26.7-53.3c-2.4-6,0-11.7,5.4-13.9
		c5.3-2.1,10.8,0.5,13.2,6.3c7.5,18.2,16.4,35.7,26.5,52.6c10.6,17.6,26.5,25.1,45.8,27.5C168.4,235.4,176.8,236.1,185.4,237z"/>
	<path class="st2" d="M65.2,40.2c9.6,3.5,13.1,10.7,12.9,20.5C78,74.9,78.2,89,78.1,103.1c-0.1,14.6-14.8,23.2-27,15.9
		c-6.1-3.7-8.8-9.3-8.8-16.3c0-10.5,0-21,0-31.4c0-4.2-0.1-8.4,0-12.6c0.1-9.4,4.2-15.1,13-18.4c0.7-0.3,1.8-1.1,1.7-1.6
		c-0.1-5.4,0-10.9-0.7-16.3c-0.6-4.8-2.3-5.7-7.2-5.7c-4.1,0-8.2,0.1-12.3,0c-2.2-0.1-3.2,0.8-3.2,3c0,1-0.1,2-0.1,3.1
		c0,96.9,0,193.9,0,290.8c0,1.5,0.1,3-0.2,4.4c-0.4,2.3-2,4-4.3,3.3c-1.5-0.5-2.6-2.3-3.6-3.8c-0.5-0.7-0.1-2-0.1-3
		c0-97.4,0-194.8,0-292.2c0-2.3,0.2-4.6,0.7-6.7c1.2-4.4,4.1-6.7,8.7-6.8c5.8-0.1,11.6-0.1,17.4,0c4.7,0.1,8.2,2.7,9.9,6.7
		c1.5,3.5,2.4,7.4,2.8,11.1C65.6,31,65.2,35.6,65.2,40.2z M71.4,80.8C71.3,80.8,71.3,80.8,71.4,80.8c0-7.5,0.1-15,0-22.5
		c-0.1-7-4.6-11.8-10.9-11.9C54,46.3,49.2,51,49.1,57.9c-0.2,15.1-0.1,30.2,0,45.4c0,4.4,1.8,8,5.7,10.2c7.6,4.2,16.3-1.1,16.5-10.1
		C71.5,95.8,71.4,88.3,71.4,80.8z"/>
	<path class="st2" d="M135.9,138.2c-0.2,12.1-9.9,21.4-22.2,21.1c-11.6-0.2-21.1-10.2-20.8-21.8c0.3-11.9,10.1-21.4,21.9-21.2
		C126.7,116.5,136.1,126.3,135.9,138.2z"/>
	<path class="st2" d="M61.9,163.9c0,11.3-0.1,22.5,0,33.8c0.1,7.7,1.5,15.2,5.6,21.9c5,8,12,12.5,21.7,12.4
		c4.2-0.1,8.4-0.1,12.6,0.1c1.1,0.1,2.1,1.2,3.1,1.9c-1.1,0.7-2.1,1.9-3.2,2c-5.2,0.2-10.5,0.4-15.7,0c-9.5-0.8-16.6-5.7-21.7-13.7
		c-4.7-7.3-6.5-15.5-6.6-24c-0.1-23.3-0.1-46.7,0-70c0-1.2,1.1-3.4,1.9-3.5c2.3-0.3,2,1.8,2,3.4C61.9,140,61.9,152,61.9,163.9z"/>
</g>
</svg>
