<?xml version="1.0" encoding="utf-8"?>
<!-- Generator: Adobe Illustrator 22.1.0, SVG Export Plug-In . SVG Version: 6.00 Build 0)  -->
<svg version="1.1" id="Layer_1" xmlns="http://www.w3.org/2000/svg" xmlns:xlink="http://www.w3.org/1999/xlink" x="0px" y="0px"
	 viewBox="0 0 400 330" style="enable-background:new 0 0 400 330;" xml:space="preserve">
<style type="text/css">
	.st0{fill-rule:evenodd;clip-rule:evenodd;fill:#FDB6C8;}
	.st1{fill:#FDB6C8;}
	.st2{fill:#FFFFFF;}
	.st3{fill:#E45D5A;}
</style>
<g>
	<path class="st3" d="M201.8,132.9H178v-23.8c0-2.7-2.2-5-5-5h-37.9c-2.8,0-5,2.2-5,5v23.8h-23.8c-2.8,0-5,2.2-5,5v37.9
		c0,2.7,2.2,5,5,5h23.8v23.8c0,2.8,2.2,5,5,5H173c2.8,0,5-2.2,5-5v-23.8h23.8c2.7,0,5-2.2,5-5v-37.9
		C206.8,135.1,204.5,132.9,201.8,132.9z M196.8,170.7H173c-2.8,0-5,2.2-5,5v23.8h-27.9v-23.8c0-2.8-2.2-5-5-5h-23.8v-27.9h23.8
		c2.7,0,5-2.2,5-5V114H168v23.8c0,2.8,2.2,5,5,5h23.8V170.7z"/>
	<path class="st3" d="M302.8,68.7h-77.5l-9.2-32.1c-0.6-2.2-2.6-3.6-4.8-3.6h-45.4c-2.2,0-4.2,1.5-4.8,3.6L152,68.7H73.7
		c-13.7,0-24.9,11.2-24.9,24.9v139.6c0,13.8,11.2,24.9,24.9,24.9h1c-0.2,1.6-0.4,3.3-0.4,5c0,18.6,15.2,33.8,33.8,33.8
		c18.6,0,33.8-15.2,33.8-33.8c0-1.7-0.2-3.3-0.4-5H253c-0.2,1.6-0.4,3.3-0.4,5c0,18.6,15.2,33.8,33.8,33.8
		c18.6,0,33.8-15.2,33.8-33.8c0-1.7-0.2-3.3-0.4-5h6.5c13.7,0,24.9-11.2,24.9-24.9v-66.5L302.8,68.7z M169.7,43h37.9l7.1,24.9h-52.2
		L169.7,43z M108,287c-13.1,0-23.8-10.7-23.8-23.8c0-13.1,10.7-23.8,23.8-23.8c13.1,0,23.8,10.7,23.8,23.8
		C131.9,276.3,121.2,287,108,287z M286.4,287c-13.1,0-23.8-10.7-23.8-23.8c0-13.1,10.7-23.8,23.8-23.8c13.1,0,23.8,10.7,23.8,23.8
		C310.3,276.3,299.6,287,286.4,287z M341.3,233.3c0,8.3-6.7,15-15,15h-9.6c-5.5-11.1-17-18.8-30.3-18.8c-13.3,0-24.7,7.7-30.3,18.8
		H138.3c-5.5-11.1-17-18.8-30.3-18.8c-13.3,0-24.7,7.7-30.3,18.8h-4.1c-8.2,0-15-6.7-15-15V93.7c0-8.3,6.7-15,15-15h222.9l11.1,22.4
		h-54.5v78.1h88.1V233.3z M341.3,169.3h-78.1v-58.2h49.5l28.6,58V169.3z"/>
</g>
</svg>
