<?xml version="1.0" encoding="utf-8"?>
<!-- Generator: Adobe Illustrator 22.1.0, SVG Export Plug-In . SVG Version: 6.00 Build 0)  -->
<svg version="1.1" id="Layer_1" xmlns="http://www.w3.org/2000/svg" xmlns:xlink="http://www.w3.org/1999/xlink" x="0px" y="0px"
	 viewBox="0 0 400 330" style="enable-background:new 0 0 400 330;" xml:space="preserve">
<style type="text/css">
	.st0{fill-rule:evenodd;clip-rule:evenodd;fill:#FDB6C8;}
	.st1{fill:#FDB6C8;}
	.st2{fill:#FFFFFF;}
	.st3{fill:#2F79BB;}
</style>
<g>
	<path class="st3" d="M280.8,60.2H276h-30.3V48.6c0-2-1.6-3.7-3.7-3.7h-19.9C217.2,37.5,208.9,33,200,33c-8.9,0-17.2,4.5-22.1,11.9
		h-22.4c-2,0-3.7,1.7-3.7,3.7v11.6H126h-6.8c-13.3,0-24,10.8-24,24V273c0,13.2,10.8,24,24,24h161.6c13.3,0,24-10.8,24-24V84.2
		C304.8,71,294.1,60.2,280.8,60.2z M159.2,52.3H180c1.4,0,2.6-0.7,3.2-1.9c3.3-6.2,9.8-10,16.8-10c7,0,13.4,3.8,16.8,10
		c0.6,1.2,1.9,1.9,3.2,1.9h18.3v32.5h-79.1V52.3z M129.7,67.6h22.2v20.9c0,2,1.7,3.7,3.7,3.7H242c2,0,3.7-1.7,3.7-3.7V67.6h26.6
		v195.8H129.7V67.6z M297.5,273c0,9.2-7.5,16.7-16.7,16.7H119.2c-9.2,0-16.7-7.5-16.7-16.7V84.2c0-9.2,7.5-16.7,16.7-16.7h3.1v199.5
		c0,2,1.6,3.7,3.7,3.7h150c2,0,3.7-1.7,3.7-3.7V67.6h1.2c9.2,0,16.7,7.5,16.7,16.7V273L297.5,273z"/>
	<rect x="153.9" y="123.6" class="st3" width="92.1" height="7.4"/>
	<rect x="153.9" y="157.6" class="st3" width="92.1" height="7.4"/>
	<rect x="153.9" y="191.6" class="st3" width="92.1" height="7.4"/>
	<rect x="200.6" y="225.6" class="st3" width="45.5" height="7.4"/>
</g>
</svg>
