<?xml version="1.0" encoding="utf-8"?>
<!-- Generator: Adobe Illustrator 22.1.0, SVG Export Plug-In . SVG Version: 6.00 Build 0)  -->
<svg version="1.1" id="Layer_1" xmlns="http://www.w3.org/2000/svg" xmlns:xlink="http://www.w3.org/1999/xlink" x="0px" y="0px"
	 viewBox="0 0 400 330" style="enable-background:new 0 0 400 330;" xml:space="preserve">
<style type="text/css">
	.st0{fill-rule:evenodd;clip-rule:evenodd;fill:#FDB6C8;}
	.st1{fill:#FDB6C8;}
	.st2{fill:#FFFFFF;}
	.st3{fill:#935D87;}
</style>
<g>
	<path class="st3" d="M317.3,65.4H82.7c-4.5,0-8.1,3.6-8.1,8.1v145.7c0,4.5,3.6,8.1,8.1,8.1h234.6c4.5,0,8.1-3.6,8.1-8.1V73.5
		C325.4,69,321.8,65.4,317.3,65.4z M317.1,219H82.9v-66.5h72.4l16.6-34.7l27.5,85.5l17.5-50.8h100.2V219L317.1,219z M317.1,144.1
		H210.9l-11.3,32.7l-26.3-81.6L150,144.1H82.9V73.7h234.2L317.1,144.1L317.1,144.1z"/>
	<path class="st3" d="M317.3,37.8H82.7C63,37.8,47,53.8,47,73.5v145.7c0,19.7,16,35.7,35.7,35.7h75.8v28.9h-32v8.4h32h83.1h32v-8.4
		h-32v-28.9h75.8c19.7,0,35.7-16,35.7-35.7V73.5C353,53.8,337,37.8,317.3,37.8z M344.6,219.2c0,15.1-12.3,27.3-27.3,27.3h-84.1v37.3
		h-66.4v-37.3H82.7c-15.1,0-27.3-12.3-27.3-27.3V73.5c0-15.1,12.3-27.3,27.3-27.3h234.6c15.1,0,27.3,12.3,27.3,27.3V219.2
		L344.6,219.2z"/>
</g>
</svg>
