<?xml version="1.0" encoding="utf-8"?>
<!-- Generator: Adobe Illustrator 16.0.0, SVG Export Plug-In . SVG Version: 6.00 Build 0)  -->
<!DOCTYPE svg PUBLIC "-//W3C//DTD SVG 1.1//EN" "http://www.w3.org/Graphics/SVG/1.1/DTD/svg11.dtd">
<svg version="1.1" xmlns="http://www.w3.org/2000/svg" xmlns:xlink="http://www.w3.org/1999/xlink" x="0px" y="0px" width="1600px"
	 height="775px" viewBox="0 0 1600 775" enable-background="new 0 0 1600 775" xml:space="preserve">
<g id="Layer_1">
	<rect x="-1" fill="#49B7A4" width="1601" height="34"/>
	<rect x="-1" y="242" fill="#49B7A4" width="1601" height="34"/>
</g>
<g id="Layer_2">
	<line fill="none" stroke="#E26B0A" stroke-miterlimit="10" x1="75.929" y1="68.758" x2="388.929" y2="68.758"/>
	<line fill="none" stroke="#E26B0A" stroke-miterlimit="10" x1="75.929" y1="87.758" x2="388.929" y2="88.758"/>
	<line fill="none" stroke="#E26B0A" stroke-miterlimit="10" x1="75.929" y1="106.758" x2="388.929" y2="107.758"/>
	<line fill="none" stroke="#E26B0A" stroke-miterlimit="10" x1="75.929" y1="126.758" x2="388.929" y2="127.758"/>
	<line fill="none" stroke="#E26B0A" stroke-miterlimit="10" x1="75.929" y1="145.758" x2="388.929" y2="146.758"/>
	<line fill="none" stroke="#E26B0A" stroke-miterlimit="10" x1="75.929" y1="164.758" x2="388.929" y2="165.758"/>
</g>
<g id="Layer_3">
	<path fill="none" stroke="#35CB72" stroke-width="2.5" stroke-miterlimit="10" d="M78.274,120.358
		c0.095,0.345,0.38,0.64,0.521,0.971c1.646,0.093,3.417,0.018,4.675-0.951c1.133-0.872,1.968-3.181,3.125-3.687
		c1.819-0.794,1.664,1.04,1.679,2.487c0.041,3.869-1.096,8.278,0.47,11.968c0.658,1.552,2.104,3.039,3.647,1.532
		c2.458-2.401,1.256-5.887,1.909-8.818c0.156-0.698,0.409-1.408,0.88-1.959c2.382-2.779,2.646,1.736,2.86,3.381
		c0.196,1.498,0.137,3.399,0.901,4.75c0.621,1.096,1.321,1.158,1.994-0.346c0.441-0.986,0.153-2.042,0.163-3.077
		c0.01-1.141,0.227-2.274,0.583-3.355c0.738-2.249,2.069-4.245,3.405-6.176c0.661-0.956,2.303-2.742,1.851-4.029
		c-0.419-1.193-1.899-1.618-2.111-3.047c-0.08-0.537-0.095-1.112,0.538-0.975c0.956,0.209,2.741,1.84,3.095,2.615
		c0.816,1.79,0.323,3.876,1.01,5.721c0.336,0.899,0.781,1.773,1.166,2.654c1.771-1.623,2.955-3.216,3.16-5.673
		c0.219-2.63,0.042-5.222,0.541-7.836c0.393-2.062,2.45-12.794,5.864-7.949c0.808,1.146,1.315,2.534,1.677,3.878
		c0.211,0.785,0.26,1.644,0.383,2.446c0.227,1.479,0.799,0.801,2.023,1.294c0.804,0.325,2.38,2.152,2.942,2.792
		c0.888,1.011,0.755,0.9,0.883,2.184c0.11,1.107,0.02,2.261,0.039,3.373c0.008,0.456-0.331,1.596,0.299,1.76
		c0.452,0.118,1.21-0.819,1.458-1.103c0.802-0.92,1.817-1.579,2.982-1.976c3.814-1.3,7.205,4.295,10.181,5.774
		c1.849,0.918,3.91,1.26,5.956,1.343c0.402,0.016,0.961,0.127,1.351,0.038c0.615-0.139,0.403-0.168,0.74-0.607
		c0.95-1.234,2.441-1.93,3.34-3.188c1.349-1.89,2.327-4.609,2.496-6.918c0.251-3.442-2.256-7.333,0.042-10.296
		c1.666-2.149,4.188-4.502,6.778-5.695c0.74-0.341,1.283-0.724,2.159-0.576c0.891,0.15,1.317,1.096,2.18,0.791
		c1.381-0.49,1.417-2.774,2.831-3.127c1.449,2.148,0.697,4.983,1.168,7.379c0.218,1.109,0.161,0.975,1.009,1.732
		c0.726,0.648,1.435,0.758,2.422,1.088c2.911,0.972,5.796,2.041,8.747,2.891c-0.105-0.031,4.514,0.892,4.661,1.22
		c0.633,1.408-2.513,4.761-2.797,6.347c-0.265,1.476-0.51,2.914-0.313,4.43c1.273,0.258,2.021-0.938,3.481-0.361
		c0.816,0.323,1.779,1.542,2.407,2.126c0.869,0.809,2.21,1.538,2.88,2.487c1.105,1.565,0.91,4.312,2.844,5.276
		c3.615,1.802,6.005-3.15,6.853-5.711c0.773-2.335,0.482-5.307,1.509-7.458c1.316-2.758,5.249-2.776,6.753-5.619
		c1.189-2.247,0.504-4.475,1.131-6.825c0.452-1.692,2.275-5.087,4.065-5.164c1.402-0.061,3.614,3.095,4.212,3.919
		c0.84,1.156,0.91,2.211,0.971,3.65c0.148,3.476,1.991,3.76,4.174,0.892c2.609-3.427,2.992,0.732,3.155,3.189
		c0.245,3.686,3.426,5.288,6.707,5.785c3.21,0.487,5.143,0.153,6.322,3.146c0.362,0.118,0.597,0.002,0.805-0.142"/>
	<line fill="none" stroke="#35CB72" stroke-miterlimit="10" x1="1250.872" y1="55.572" x2="1610.622" y2="55.572"/>
	<line fill="none" stroke="#35CB72" stroke-miterlimit="10" x1="1250.872" y1="83.656" x2="1610.622" y2="83.656"/>
	<line fill="none" stroke="#35CB72" stroke-miterlimit="10" x1="1250.872" y1="111.989" x2="1610.622" y2="111.989"/>
	<line fill="none" stroke="#35CB72" stroke-miterlimit="10" x1="1250.872" y1="138.822" x2="1610.622" y2="138.822"/>
	<line fill="none" stroke="#35CB72" stroke-miterlimit="10" x1="1250.872" y1="165.822" x2="1610.622" y2="165.822"/>
	<g>
		<circle fill="#3FCE79" cx="1255.124" cy="145.667" r="2.833"/>
		<circle fill="#3FCE79" cx="1259.957" cy="118.917" r="2.833"/>
		<circle fill="#3FCE79" cx="1265.623" cy="122.208" r="2.833"/>
		<circle fill="#3FCE79" cx="1269.998" cy="67.333" r="2.833"/>
		<circle fill="#3FCE79" cx="1279.414" cy="106.083" r="2.833"/>
		<circle fill="#3FCE79" cx="1283.914" cy="134.25" r="2.833"/>
		<circle fill="#3FCE79" cx="1324.081" cy="110.084" r="2.833"/>
		<circle fill="#3FCE79" cx="1329.747" cy="120.209" r="2.833"/>
		<circle fill="#3FCE79" cx="1339.124" cy="119.334" r="2.833"/>
		<circle fill="#3FCE79" cx="1345.874" cy="122.167" r="2.833"/>
		<circle fill="#3FCE79" cx="1355.124" cy="152.188" r="2.833"/>
		<circle fill="#3FCE79" cx="1359.624" cy="165.438" r="2.833"/>
		<circle fill="#3FCE79" cx="1365.29" cy="134.771" r="2.833"/>
		<circle fill="#3FCE79" cx="1369.79" cy="148.854" r="2.833"/>
		<circle fill="#3FCE79" cx="1374.623" cy="128.604" r="2.833"/>
		<circle fill="#3FCE79" cx="1379.29" cy="166.354" r="2.833"/>
		<circle fill="#3FCE79" cx="1384.956" cy="122.167" r="2.833"/>
		<circle fill="#3FCE79" cx="1390.622" cy="91.417" r="2.833"/>
		<circle fill="#3FCE79" cx="1395.747" cy="111.542" r="2.833"/>
		<circle fill="#3FCE79" cx="1404.247" cy="127.063" r="2.833"/>
		<circle fill="#3FCE79" cx="1408.747" cy="134.771" r="2.833"/>
		<circle fill="#3FCE79" cx="1415.747" cy="134.271" r="2.833"/>
		<circle fill="#3FCE79" cx="1399.872" cy="166.354" r="2.833"/>
		<circle fill="#3FCE79" cx="1422.872" cy="166.354" r="2.833"/>
		<circle fill="#3FCE79" cx="1429.372" cy="97.854" r="2.833"/>
		<circle fill="#3FCE79" cx="1434.497" cy="165.438" r="2.833"/>
		<circle fill="#3FCE79" cx="1445.372" cy="165.438" r="2.833"/>
		<circle fill="#3FCE79" cx="1349.624" cy="71.334" r="2.833"/>
		<circle fill="#3FCE79" cx="1334.06" cy="141.834" r="2.833"/>
		<circle fill="#3FCE79" cx="1320.872" cy="146.021" r="2.833"/>
		<circle fill="#3FCE79" cx="1315.206" cy="129.896" r="2.833"/>
		<circle fill="#3FCE79" cx="1311.269" cy="148.854" r="2.833"/>
		<circle fill="#3FCE79" cx="1304.019" cy="149.354" r="2.833"/>
		<circle fill="#3FCE79" cx="1295.664" cy="81.833" r="2.833"/>
		<circle fill="#3FCE79" cx="1300.247" cy="96.5" r="2.833"/>
		<circle fill="#3FCE79" cx="1288.831" cy="77" r="2.833"/>
		<circle fill="#3FCE79" cx="1274.414" cy="100.417" r="2.833"/>
		<polyline fill="none" stroke="#35CB72" stroke-miterlimit="10" points="1255.124,145.667 1259.291,119 1265.457,121.834 
			1270.124,69.167 1273.957,100.834 1279.791,105.667 1284.124,132.334 1289.124,77.334 1294.457,80.834 1300.457,95.667 
			1304.457,150.334 1310.291,150.334 1314.791,129.5 1320.457,144.667 1323.291,109.75 1329.957,119.667 1333.957,141.834 
			1339.124,119.334 1345.291,122.167 1349.291,71.5 1354.291,150.334 1359.791,165.5 1365.291,135.834 1369.457,148.334 
			1374.291,128.167 1379.124,165.5 1384.791,122.5 1389.624,92 1395.124,111.5 1399.624,168.667 1404.291,127 1408.791,135.167 
			1415.791,135.167 1419.457,150.5 1422.624,165.667 1428.791,97 1434.124,165.334 1438.957,165.5 1444.124,165.167 		"/>
	</g>
	<path fill="none" stroke="#35CB72" stroke-width="3" stroke-miterlimit="10" d="M459.707,105.193c0,0,3.167,8.5,5.5,6.334
		c0,0,2.5-5.959,4,0.354s0.666,0,0.666,0s2.667,21.48,4.167,11.48c0,0,2.001-19.334,4.667-11.168c0,0,3.833,18.834,4.333,8.168
		c0,0,1.333-36.334,4.5-25.668c0,0,1.583,21.375,3.208,10.625c0.624-8.176,1.501-16.372,1.94-24.555
		c0.139-2.599-0.203-6.024,1.537-8.237c0.785-0.999,2.425-2.482,3.744-2.588c1.922-0.154,1.79,1.417,2.011,2.966
		c0.718,5.041,2.191,9.862,1.893,15.038c0,0,11.37,15.243,13.249,15.375c0.911,0.063,4.478-4.664,5.126-5.34
		c0.986,5.052,4.49,14.763,10.83,14.788c2.789,0.011,3.484-2.351,3.618-4.697c0.24-4.213,0.207-8.383,0.673-12.592
		c0.591-5.336,1.041-10.687,1.504-16.034c0,0,2.5-9.75,5.625-8l3.25,4.125c0.781-1.753,1.295-3.61,2.008-5.391
		c0.499-1.246,1.773-4.79,3.46-3.261c1.769,1.603,0.694,6.902,1.083,9.089c0.28,1.586,0.218,4.795,1.084,6.103
		c0.636,0.961,2.112,1.026,3.136,1.835c2.23,1.763,3.428,4.685,4.567,7.199c2.074,4.573,3.51,9.423,4.662,14.3
		c0.122,0.519,5.743,0.454,6.473,1.037c1.588,1.271,2.115,3.679,2.776,5.508c0.87,2.405,1.951,4.714,3.141,6.978
		c1.934,3.68,5.087-2.801,5.943-4.725c3.783-8.548,4.642-18.058,8.483-26.496c1.474-3.237,4.065-7.657,8.335-5.787
		c2.778,1.217,4.298,4.009,5.725,6.503c2.175,3.802,4.688,7.311,7.505,10.662c2.937,3.495,5.222,4.879,7.595,0.105
		c1.271-2.558,2.504-5.168,3.899-7.659"/>
	<line fill="none" stroke="#35CB72" stroke-miterlimit="10" x1="454.873" y1="45.194" x2="767.373" y2="45.194"/>
	<line fill="none" stroke="#35CB72" stroke-miterlimit="10" x1="454.873" y1="70.194" x2="767.373" y2="70.194"/>
	<line fill="none" stroke="#35CB72" stroke-miterlimit="10" x1="454.873" y1="95.193" x2="767.373" y2="95.193"/>
	<line fill="none" stroke="#35CB72" stroke-miterlimit="10" x1="454.873" y1="120.193" x2="767.373" y2="120.193"/>
	<line fill="none" stroke="#35CB72" stroke-miterlimit="10" x1="454.873" y1="145.193" x2="767.373" y2="145.193"/>
	<line fill="none" stroke="#35CB72" stroke-miterlimit="10" x1="454.873" y1="169.193" x2="767.373" y2="169.193"/>
	
		<line fill="none" stroke="#35CB72" stroke-width="0.6532" stroke-miterlimit="10" x1="457.707" y1="175.36" x2="457.707" y2="42.027"/>
	<line fill="none" stroke="#35CB72" stroke-miterlimit="10" x1="50.928" y1="693.861" x2="418.928" y2="693.861"/>
	<line fill="none" stroke="#35CB72" stroke-miterlimit="10" x1="50.928" y1="670.861" x2="418.928" y2="670.861"/>
	<line fill="none" stroke="#35CB72" stroke-miterlimit="10" x1="50.928" y1="645.861" x2="418.928" y2="645.861"/>
	<line fill="none" stroke="#35CB72" stroke-miterlimit="10" x1="50.928" y1="620.861" x2="418.928" y2="620.861"/>
	<line fill="none" stroke="#35CB72" stroke-miterlimit="10" x1="50.928" y1="596.861" x2="418.928" y2="596.861"/>
	<line fill="none" stroke="#35CB72" stroke-miterlimit="10" x1="50.928" y1="572.861" x2="418.928" y2="572.861"/>
	<line fill="none" stroke="#35CB72" stroke-miterlimit="10" x1="50.928" y1="547.861" x2="418.928" y2="547.861"/>
	<rect x="63.929" y="432.604" fill="#35CB72" width="34.666" height="17.666"/>
	<rect x="124.261" y="356.938" fill="#35CB72" width="34.667" height="93"/>
	<rect x="248.928" y="303.604" fill="#35CB72" width="34.667" height="146.667"/>
	<rect x="186.261" y="394.271" fill="#35CB72" width="34.667" height="55.667"/>
	<rect x="310.261" y="358.938" fill="#35CB72" width="34.667" height="91.333"/>
	<rect x="371.595" y="414.938" fill="#35CB72" width="34.666" height="35.332"/>
	<line fill="none" stroke="#35CB72" stroke-miterlimit="10" x1="50.929" y1="449.938" x2="418.929" y2="449.938"/>
	<rect x="63.928" y="631.652" fill="#E46C0A" width="34.666" height="62.541"/>
	<rect x="124.26" y="585" fill="#E46C0A" width="34.667" height="108.861"/>
	<rect x="248.927" y="559.5" fill="#E46C0A" width="34.667" height="134.693"/>
	<rect x="186.26" y="626.152" fill="#E46C0A" width="34.667" height="67.709"/>
	<rect x="310.26" y="592.652" fill="#E46C0A" width="34.667" height="101.541"/>
	<rect x="371.594" y="573.569" fill="#E46C0A" width="34.666" height="120.623"/>
	<path fill="#65C98B" d="M608.193,304.136c-48.784,0-88.333,39.548-88.333,88.333s39.549,88.333,88.333,88.333
		s88.333-39.548,88.333-88.333S656.977,304.136,608.193,304.136z M608.193,436.802c-24.484,0-44.333-19.849-44.333-44.333
		c0-16.273,8.769-30.498,21.838-38.209c6.594-3.891,14.283-6.124,22.495-6.124c24.484,0,44.333,19.849,44.333,44.333
		S632.677,436.802,608.193,436.802z"/>
	<path fill="#93CDDD" d="M586.159,353.992l-22.438-37.859c0,0,22.236-13.084,44.473-11.998v44
		C608.193,348.136,596.547,347.361,586.159,353.992z"/>
	<path fill="#FAC090" d="M608.193,348.136v-44c0,0,65.304-2.946,85.402,65.693l-42.513,11.382
		C651.083,381.211,645.027,349.903,608.193,348.136z"/>
	<path fill="#E46C0A" d="M625.446,433.319c0,0,32.414-11.583,25.637-52.108l42.513-11.382c0,0,20.432,68.741-50.519,103.813
		L625.446,433.319z"/>
	<path fill="#65C98B" d="M542.54,595.199c-30.728,37.892-24.921,93.519,12.971,124.247s93.519,24.92,124.246-12.971
		s24.921-93.519-12.97-124.246C628.895,551.501,573.268,557.309,542.54,595.199z M645.582,678.762
		c-15.422,19.017-43.34,21.932-62.357,6.51c-12.64-10.25-18.165-26.021-15.922-41.028c1.131-7.572,4.24-14.951,9.412-21.329
		c15.422-19.018,43.34-21.932,62.357-6.51S661.004,659.744,645.582,678.762z"/>
	<path fill="#93CDDD" d="M567.385,643.717l-43.539-6.418c0,0,3.844-25.513,18.694-42.1l34.175,27.715
		C576.715,622.914,568.778,631.471,567.385,643.717z"/>
	<path fill="#FAC090" d="M576.715,622.914l-34.175-27.715c0,0,38.844-52.577,104.816-24.954l-17.937,40.189
		C629.419,610.435,601.288,595.418,576.715,622.914z"/>
	<path fill="#E46C0A" d="M653.744,663.168c0,0,11.42-32.472-24.325-52.733l17.937-40.189c0,0,66.261,27.429,48.812,104.627
		L653.744,663.168z"/>
	<rect x="835.236" y="410.712" fill="#35CB72" width="37.5" height="30.444"/>
	<rect x="902.236" y="378.288" fill="#35CB72" width="37.5" height="63"/>
	<rect x="968.486" y="320.788" fill="#35CB72" width="37.5" height="120.859"/>
	<rect x="1036.236" y="369.829" fill="#35CB72" width="37.5" height="72.458"/>
	<rect x="1102.986" y="421.287" fill="#35CB72" width="37.5" height="20.9"/>
	<line fill="none" stroke="#35CB72" stroke-miterlimit="10" x1="819.986" y1="295.288" x2="1155.486" y2="295.288"/>
	<line fill="none" stroke="#35CB72" stroke-miterlimit="10" x1="819.986" y1="315.288" x2="1155.486" y2="316.288"/>
	<line fill="none" stroke="#35CB72" stroke-miterlimit="10" x1="819.986" y1="336.288" x2="1155.486" y2="337.288"/>
	<line fill="none" stroke="#35CB72" stroke-miterlimit="10" x1="819.986" y1="357.288" x2="1155.486" y2="358.288"/>
	<line fill="none" stroke="#35CB72" stroke-miterlimit="10" x1="819.986" y1="378.288" x2="1155.486" y2="379.288"/>
	<line fill="none" stroke="#35CB72" stroke-miterlimit="10" x1="819.986" y1="399.287" x2="1155.486" y2="400.287"/>
	<line fill="none" stroke="#35CB72" stroke-miterlimit="10" x1="819.986" y1="420.287" x2="1155.486" y2="421.287"/>
	<line fill="none" stroke="#35CB72" stroke-miterlimit="10" x1="819.986" y1="441.287" x2="1155.486" y2="442.287"/>
	<line fill="none" stroke="#35CB72" stroke-miterlimit="10" x1="816.904" y1="565.879" x2="1152.404" y2="566.879"/>
	<line fill="none" stroke="#35CB72" stroke-miterlimit="10" x1="816.904" y1="586.879" x2="1152.404" y2="587.879"/>
	<line fill="none" stroke="#35CB72" stroke-miterlimit="10" x1="816.904" y1="607.879" x2="1152.404" y2="608.879"/>
	<line fill="none" stroke="#35CB72" stroke-miterlimit="10" x1="816.904" y1="628.879" x2="1152.404" y2="629.879"/>
	<line fill="none" stroke="#35CB72" stroke-miterlimit="10" x1="816.904" y1="649.879" x2="1152.404" y2="650.879"/>
	<line fill="none" stroke="#35CB72" stroke-miterlimit="10" x1="816.904" y1="670.879" x2="1152.404" y2="671.879"/>
	<line fill="none" x1="816.904" y1="691.879" x2="1152.404" y2="692.879"/>
	<rect x="832.154" y="651.879" fill="#E46C0A" width="37.5" height="40.5"/>
	<rect x="899.154" y="611.545" fill="#E46C0A" width="37.5" height="80.834"/>
	<rect x="965.404" y="554.545" fill="#E46C0A" width="37.5" height="137.834"/>
	<rect x="1033.154" y="578.795" fill="#E46C0A" width="37.5" height="113.584"/>
	<rect x="1099.904" y="676.879" fill="#E46C0A" width="37.5" height="16"/>
	<path fill="#65C98B" d="M1365.632,342.409v69.5l-51.478,41.641c12.382,14.59,30.842,23.859,51.478,23.859
		c37.279,0,67.5-30.221,67.5-67.5S1402.911,342.409,1365.632,342.409z"/>
	<path fill="#E46C0A" d="M1362.007,407.682v-67.625c0,0-59.75,5.125-66.75,59.125L1362.007,407.682z"/>
	<path fill="#B7DEE8" d="M1295.257,402.682l65.625,8l-52.625,41.25C1308.257,451.932,1292.007,428.807,1295.257,402.682z"/>
	<path fill="#35CB72" d="M1369.418,594.697v66.5l-65.64,10.656c5.102,31.659,32.542,55.844,65.64,55.844
		c36.727,0,66.5-29.773,66.5-66.5S1406.145,594.697,1369.418,594.697z"/>
	<path fill="#E46C0A" d="M1306.793,625.572c0,0,15.875-33.75,59.375-35.75v66.5L1306.793,625.572z"/>
	<path fill="#008000" d="M1298.668,669.447c0,0-2.625-25.125,7.125-41.5l58.875,31.25L1298.668,669.447z"/>
	<text transform="matrix(1 0 0 1 42.7607 74.0005)" font-family="'MyriadPro-Regular'" font-size="12">2500</text>
	<text transform="matrix(1 0 0 1 42.7607 91.667)" font-family="'MyriadPro-Regular'" font-size="12">2000</text>
	<text transform="matrix(1 0 0 1 42.7607 109.667)" font-family="'MyriadPro-Regular'" font-size="12">1500</text>
	<text transform="matrix(1 0 0 1 44.5107 130.3335)" font-family="'MyriadPro-Regular'" font-size="12">1000</text>
	<text transform="matrix(1 0 0 1 44.5107 149.667)" font-family="'MyriadPro-Regular'" font-size="12">  500</text>
	<text transform="matrix(-4.371139e-008 -1 1 -4.371139e-008 81.2612 492.8613)"><tspan x="0" y="0" font-family="'MyriadPro-Regular'" font-size="12">Ortho</tspan><tspan x="0" y="63" font-family="'MyriadPro-Regular'" font-size="12">Uro</tspan><tspan x="0" y="126" font-family="'MyriadPro-Regular'" font-size="12">Gynae</tspan><tspan x="0" y="189" font-family="'MyriadPro-Regular'" font-size="12">Cardio</tspan><tspan x="0" y="252" font-family="'MyriadPro-Regular'" font-size="12">ENT</tspan><tspan x="0" y="315" font-family="'MyriadPro-Regular'" font-size="12">Derma</tspan></text>
	<text transform="matrix(-4.371139e-008 -1 1 -4.371139e-008 81.2612 729.8613)"><tspan x="0" y="0" font-family="'MyriadPro-Regular'" font-size="12">Ortho</tspan><tspan x="0" y="63" font-family="'MyriadPro-Regular'" font-size="12">Uro</tspan><tspan x="0" y="126" font-family="'MyriadPro-Regular'" font-size="12">Gynae</tspan><tspan x="0" y="189" font-family="'MyriadPro-Regular'" font-size="12">Cardio</tspan><tspan x="0" y="252" font-family="'MyriadPro-Regular'" font-size="12">ENT</tspan><tspan x="0" y="315" font-family="'MyriadPro-Regular'" font-size="12">Derma</tspan></text>
	<text transform="matrix(-4.371139e-008 -1 1 -4.371139e-008 854.7061 728.1719)"><tspan x="0" y="0" font-family="'MyriadPro-Regular'" font-size="12">Ortho</tspan><tspan x="0" y="68" font-family="'MyriadPro-Regular'" font-size="12">Uro</tspan><tspan x="0" y="136" font-family="'MyriadPro-Regular'" font-size="12">Gynae</tspan><tspan x="0" y="204" font-family="'MyriadPro-Regular'" font-size="12">Cardio</tspan><tspan x="0" y="272" font-family="'MyriadPro-Regular'" font-size="12">ENT</tspan></text>
	<text transform="matrix(1 0 0 1 22.0439 552.8613)"><tspan x="0" y="0" font-family="'MyriadPro-Regular'" font-size="12">700</tspan><tspan x="0" y="24" font-family="'MyriadPro-Regular'" font-size="12">600</tspan><tspan x="0" y="48" font-family="'MyriadPro-Regular'" font-size="12">500</tspan><tspan x="0" y="72" font-family="'MyriadPro-Regular'" font-size="12">400</tspan><tspan x="0" y="96" font-family="'MyriadPro-Regular'" font-size="12">300</tspan><tspan x="0" y="120" font-family="'MyriadPro-Regular'" font-size="12">200</tspan><tspan x="0" y="144" font-family="'MyriadPro-Regular'" font-size="12">100</tspan></text>
	<text transform="matrix(1 0 0 1 22.0439 307.8618)"><tspan x="0" y="0" font-family="'MyriadPro-Regular'" font-size="12">700</tspan><tspan x="0" y="24" font-family="'MyriadPro-Regular'" font-size="12">600</tspan><tspan x="0" y="48" font-family="'MyriadPro-Regular'" font-size="12">500</tspan><tspan x="0" y="72" font-family="'MyriadPro-Regular'" font-size="12">400</tspan><tspan x="0" y="96" font-family="'MyriadPro-Regular'" font-size="12">300</tspan><tspan x="0" y="120" font-family="'MyriadPro-Regular'" font-size="12">200</tspan><tspan x="0" y="144" font-family="'MyriadPro-Regular'" font-size="12">100</tspan></text>
	<text transform="matrix(-4.371139e-008 -1 1 -4.371139e-008 853.7305 487.5742)"><tspan x="0" y="0" font-family="'MyriadPro-Regular'" font-size="12">Tech</tspan><tspan x="0" y="68" font-family="'MyriadPro-Regular'" font-size="12">Doctor</tspan><tspan x="0" y="136" font-family="'MyriadPro-Regular'" font-size="12">Nurse</tspan><tspan x="0" y="204" font-family="'MyriadPro-Regular'" font-size="12">Security</tspan><tspan x="0" y="272" font-family="'MyriadPro-Regular'" font-size="12">Admin</tspan></text>
	<text transform="matrix(1 0 0 1 794.5137 551.5742)"><tspan x="0" y="0" font-family="'MyriadPro-Regular'" font-size="12">700</tspan><tspan x="0" y="24" font-family="'MyriadPro-Regular'" font-size="12">600</tspan><tspan x="0" y="48" font-family="'MyriadPro-Regular'" font-size="12">500</tspan><tspan x="0" y="72" font-family="'MyriadPro-Regular'" font-size="12">400</tspan><tspan x="0" y="96" font-family="'MyriadPro-Regular'" font-size="12">300</tspan><tspan x="0" y="120" font-family="'MyriadPro-Regular'" font-size="12">200</tspan><tspan x="0" y="144" font-family="'MyriadPro-Regular'" font-size="12">100</tspan></text>
	<text transform="matrix(1 0 0 1 794.5137 301.5742)"><tspan x="0" y="0" font-family="'MyriadPro-Regular'" font-size="12">70</tspan><tspan x="0" y="24" font-family="'MyriadPro-Regular'" font-size="12">60</tspan><tspan x="0" y="48" font-family="'MyriadPro-Regular'" font-size="12">50</tspan><tspan x="0" y="72" font-family="'MyriadPro-Regular'" font-size="12">40</tspan><tspan x="0" y="96" font-family="'MyriadPro-Regular'" font-size="12">30</tspan><tspan x="0" y="120" font-family="'MyriadPro-Regular'" font-size="12">20</tspan><tspan x="0" y="144" font-family="'MyriadPro-Regular'" font-size="12">10</tspan></text>
	<text transform="matrix(-4.371139e-008 -1 1 -4.371139e-008 472.2612 195.3335)"><tspan x="0" y="0" font-family="'MyriadPro-Regular'" font-size="12">Jan</tspan><tspan x="0" y="27" font-family="'MyriadPro-Regular'" font-size="12">Feb</tspan><tspan x="0" y="54" font-family="'MyriadPro-Regular'" font-size="12">Mar</tspan><tspan x="0" y="81" font-family="'MyriadPro-Regular'" font-size="12">Apr</tspan><tspan x="0" y="108" font-family="'MyriadPro-Regular'" font-size="12">May</tspan><tspan x="0" y="135" font-family="'MyriadPro-Regular'" font-size="12">June</tspan><tspan x="0" y="162" font-family="'MyriadPro-Regular'" font-size="12">July</tspan><tspan x="0" y="189" font-family="'MyriadPro-Regular'" font-size="12">Aug</tspan><tspan x="0" y="216" font-family="'MyriadPro-Regular'" font-size="12">Sept</tspan><tspan x="0" y="243" font-family="'MyriadPro-Regular'" font-size="12">Oct</tspan><tspan x="0" y="270" font-family="'MyriadPro-Regular'" font-size="12">Nov</tspan><tspan x="0" y="297" font-family="'MyriadPro-Regular'" font-size="12">Dec</tspan></text>
	<text transform="matrix(1 0 0 1 62.0938 168.167)" font-family="'MyriadPro-Regular'" font-size="12">0</text>
	<text transform="matrix(1 0 0 1 419.4272 73.9561)" font-family="'MyriadPro-Regular'" font-size="12">2500</text>
	<text transform="matrix(1 0 0 1 419.4272 91.6226)" font-family="'MyriadPro-Regular'" font-size="12">2000</text>
	<text transform="matrix(1 0 0 1 419.4272 109.6226)" font-family="'MyriadPro-Regular'" font-size="12">1500</text>
	<text transform="matrix(1 0 0 1 421.1772 130.2891)" font-family="'MyriadPro-Regular'" font-size="12">1000</text>
	<text transform="matrix(1 0 0 1 421.1772 149.6226)" font-family="'MyriadPro-Regular'" font-size="12">  500</text>
	<text transform="matrix(1 0 0 1 438.7603 169.1938)" font-family="'MyriadPro-Regular'" font-size="12">0</text>
	<text transform="matrix(1 0 0 1 154.2607 221.3335)" fill="#231F20" font-family="'FranklinGothic-Medium'" font-size="16">OPD Registration</text>
	<text transform="matrix(1 0 0 1 544.2607 221.3335)" fill="#231F20" font-family="'FranklinGothic-Medium'" font-size="16">IPD Registration</text>
	<path fill="none" stroke="#35CB72" stroke-width="3" stroke-miterlimit="10" d="M1075.103,110.583c0,0-3.167,8.5-5.5,6.334
		c0,0-2.5-5.959-4,0.354s-0.666,0-0.666,0s-2.667,21.48-4.167,11.48c0,0-2.001-19.334-4.667-11.168c0,0-3.833,18.834-4.333,8.168
		c0,0-1.333-36.334-4.5-25.668c0,0-1.583,21.375-3.208,10.625c-0.624-8.176-1.501-16.372-1.94-24.555
		c-0.139-2.599,0.203-6.024-1.537-8.237c-0.785-0.999-2.425-2.482-3.744-2.588c-1.922-0.154-1.79,1.417-2.011,2.966
		c-0.718,5.041-2.191,9.862-1.893,15.038c0,0-11.37,15.243-13.249,15.375c-0.911,0.063-4.478-4.664-5.126-5.34
		c-0.986,5.052-4.49,14.763-10.83,14.788c-2.789,0.011-3.484-2.351-3.618-4.697c-0.24-4.213-0.207-8.383-0.673-12.592
		c-0.591-5.336-1.041-10.687-1.504-16.034c0,0-2.5-9.75-5.625-8l-3.25,4.125c-0.781-1.753-1.295-3.61-2.008-5.391
		c-0.499-1.246-1.773-4.79-3.46-3.261c-1.769,1.603-0.694,6.902-1.083,9.089c-0.28,1.586-0.218,4.795-1.084,6.103
		c-0.636,0.961-2.112,1.026-3.136,1.835c-2.23,1.763-3.428,4.685-4.567,7.199c-2.074,4.573-3.51,9.423-4.662,14.3
		c-0.122,0.519-5.743,0.454-6.473,1.037c-1.588,1.271-2.115,3.679-2.776,5.508c-0.87,2.405-1.951,4.714-3.141,6.978
		c-1.934,3.68-5.087-2.801-5.943-4.725c-3.783-8.548-4.642-18.058-8.483-26.496c-1.474-3.237-4.065-7.657-8.335-5.787
		c-2.778,1.217-4.298,4.009-5.725,6.503c-2.175,3.802-4.688,7.311-7.505,10.662c-2.937,3.495-5.222,4.879-7.595,0.105
		c-1.271-2.558-2.504-5.168-3.899-7.659"/>
	<line fill="none" stroke="#35CB72" stroke-miterlimit="10" x1="851.873" y1="45.194" x2="1164.373" y2="45.194"/>
	<line fill="none" stroke="#35CB72" stroke-miterlimit="10" x1="851.873" y1="70.194" x2="1164.373" y2="70.194"/>
	<line fill="none" stroke="#35CB72" stroke-miterlimit="10" x1="851.873" y1="95.193" x2="1164.373" y2="95.193"/>
	<line fill="none" stroke="#35CB72" stroke-miterlimit="10" x1="851.873" y1="120.193" x2="1164.373" y2="120.193"/>
	<line fill="none" stroke="#35CB72" stroke-miterlimit="10" x1="851.873" y1="145.193" x2="1164.373" y2="145.193"/>
	<line fill="none" stroke="#35CB72" stroke-miterlimit="10" x1="851.873" y1="169.193" x2="1164.373" y2="169.193"/>
	
		<line fill="none" stroke="#35CB72" stroke-width="0.6532" stroke-miterlimit="10" x1="854.707" y1="175.36" x2="854.707" y2="42.027"/>
	<text transform="matrix(-4.371139e-008 -1 1 -4.371139e-008 869.2607 195.3335)"><tspan x="0" y="0" font-family="'MyriadPro-Regular'" font-size="12">Jan</tspan><tspan x="0" y="27" font-family="'MyriadPro-Regular'" font-size="12">Feb</tspan><tspan x="0" y="54" font-family="'MyriadPro-Regular'" font-size="12">Mar</tspan><tspan x="0" y="81" font-family="'MyriadPro-Regular'" font-size="12">Apr</tspan><tspan x="0" y="108" font-family="'MyriadPro-Regular'" font-size="12">May</tspan><tspan x="0" y="135" font-family="'MyriadPro-Regular'" font-size="12">June</tspan><tspan x="0" y="162" font-family="'MyriadPro-Regular'" font-size="12">July</tspan><tspan x="0" y="189" font-family="'MyriadPro-Regular'" font-size="12">Aug</tspan><tspan x="0" y="216" font-family="'MyriadPro-Regular'" font-size="12">Sept</tspan><tspan x="0" y="243" font-family="'MyriadPro-Regular'" font-size="12">Oct</tspan><tspan x="0" y="270" font-family="'MyriadPro-Regular'" font-size="12">Nov</tspan><tspan x="0" y="297" font-family="'MyriadPro-Regular'" font-size="12">Dec</tspan></text>
	<text transform="matrix(1 0 0 1 816.4277 73.9561)" font-family="'MyriadPro-Regular'" font-size="12">2500</text>
	<text transform="matrix(1 0 0 1 816.4277 91.6226)" font-family="'MyriadPro-Regular'" font-size="12">2000</text>
	<text transform="matrix(1 0 0 1 816.4277 109.6226)" font-family="'MyriadPro-Regular'" font-size="12">1500</text>
	<text transform="matrix(1 0 0 1 818.1777 130.2891)" font-family="'MyriadPro-Regular'" font-size="12">1000</text>
	<text transform="matrix(1 0 0 1 818.1777 149.6226)" font-family="'MyriadPro-Regular'" font-size="12">  500</text>
	<text transform="matrix(1 0 0 1 835.7598 169.1938)" font-family="'MyriadPro-Regular'" font-size="12">0</text>
	<text transform="matrix(-4.371139e-008 -1 1 -4.371139e-008 1257.54 195.4595)"><tspan x="0" y="0" font-family="'MyriadPro-Regular'" font-size="12">Jan</tspan><tspan x="0" y="27" font-family="'MyriadPro-Regular'" font-size="12">Feb</tspan><tspan x="0" y="54" font-family="'MyriadPro-Regular'" font-size="12">Mar</tspan><tspan x="0" y="81" font-family="'MyriadPro-Regular'" font-size="12">Apr</tspan><tspan x="0" y="108" font-family="'MyriadPro-Regular'" font-size="12">May</tspan><tspan x="0" y="135" font-family="'MyriadPro-Regular'" font-size="12">June</tspan><tspan x="0" y="162" font-family="'MyriadPro-Regular'" font-size="12">July</tspan><tspan x="0" y="189" font-family="'MyriadPro-Regular'" font-size="12">Aug</tspan><tspan x="0" y="216" font-family="'MyriadPro-Regular'" font-size="12">Sept</tspan><tspan x="0" y="243" font-family="'MyriadPro-Regular'" font-size="12">Oct</tspan><tspan x="0" y="270" font-family="'MyriadPro-Regular'" font-size="12">Nov</tspan><tspan x="0" y="297" font-family="'MyriadPro-Regular'" font-size="12">Dec</tspan></text>
	<text transform="matrix(1 0 0 1 1211.707 74.082)" font-family="'MyriadPro-Regular'" font-size="12">2500</text>
	<text transform="matrix(1 0 0 1 1211.707 91.7485)" font-family="'MyriadPro-Regular'" font-size="12">2000</text>
	<text transform="matrix(1 0 0 1 1211.707 109.7485)" font-family="'MyriadPro-Regular'" font-size="12">1500</text>
	<text transform="matrix(1 0 0 1 1213.457 130.415)" font-family="'MyriadPro-Regular'" font-size="12">1000</text>
	<text transform="matrix(1 0 0 1 1213.457 149.7485)" font-family="'MyriadPro-Regular'" font-size="12">  500</text>
	<text transform="matrix(1 0 0 1 1231.0391 169.3198)" font-family="'MyriadPro-Regular'" font-size="12">0</text>
	<text transform="matrix(1 0 0 1 941.2607 221.3335)" fill="#231F20" font-family="'FranklinGothic-Medium'" font-size="16">Day Care Registration</text>
	<text transform="matrix(1 0 0 1 1292.2607 221.3335)" fill="#231F20" font-family="'FranklinGothic-Medium'" font-size="16">OT Registration</text>
	<text transform="matrix(1 0 0 1 68.4048 428.0859)" font-family="'FranklinGothic-Medium'" font-size="12.532">180</text>
	<text transform="matrix(1 0 0 1 129.4048 352.0859)" font-family="'FranklinGothic-Medium'" font-size="12.532">480</text>
	<text transform="matrix(1 0 0 1 188 391.0859)" font-family="'FranklinGothic-Medium'" font-size="12.532">320</text>
	<text transform="matrix(1 0 0 1 252.5 298.7231)" font-family="'FranklinGothic-Medium'" font-size="12.532">700</text>
	<text transform="matrix(1 0 0 1 315 355.2114)" font-family="'FranklinGothic-Medium'" font-size="12.532">490</text>
	<text transform="matrix(1 0 0 1 375 410.7119)" font-family="'FranklinGothic-Medium'" font-size="12.532">230</text>
	<text transform="matrix(1 0 0 1 139 517.667)" font-family="'FranklinGothic-Medium'" font-size="16">Department-wise Patient</text>
	<circle fill="#35CB72" cx="131.26" cy="513" r="3.334"/>
	<circle fill="#35CB72" cx="145.26" cy="215" r="3.334"/>
	<circle fill="#35CB72" cx="535.26" cy="215" r="3.334"/>
	<circle fill="#35CB72" cx="933.26" cy="216" r="3.334"/>
	<circle fill="#35CB72" cx="1284.26" cy="216" r="3.334"/>
	<text transform="matrix(1 0 0 1 535 517.667)" font-family="'FranklinGothic-Medium'" font-size="16">Monthly Service Outsourced</text>
	<circle fill="#35CB72" cx="527.26" cy="513" r="3.334"/>
	<text transform="matrix(1 0 0 1 535 759.667)" font-family="'FranklinGothic-Medium'" font-size="16">Yearly Service Outsourced</text>
	<circle fill="#E46C0A" cx="527.26" cy="755" r="3.334"/>
	<text transform="matrix(1 0 0 1 909 517.667)" font-family="'FranklinGothic-Medium'" font-size="16">Department-wise Staff</text>
	<circle fill="#35CB72" cx="901.26" cy="513" r="3.334"/>
	<text transform="matrix(1 0 0 1 139 758.667)" font-family="'FranklinGothic-Medium'" font-size="16">Department-wise Lab Income</text>
	<circle fill="#E46C0A" cx="131.26" cy="754" r="3.334"/>
	<text transform="matrix(1 0 0 1 909 758.667)" font-family="'FranklinGothic-Medium'" font-size="16">Department-wise Income</text>
	<circle fill="#E46C0A" cx="901.26" cy="754" r="3.334"/>
	<text transform="matrix(1 0 0 1 1292 516.667)" font-family="'FranklinGothic-Medium'" font-size="16">Daily Attendance Chart</text>
	<circle fill="#35CB72" cx="1284.26" cy="512" r="3.334"/>
	<text transform="matrix(1 0 0 1 1291 756.667)" font-family="'FranklinGothic-Medium'" font-size="16">Monthly Attendance Chart</text>
	<circle fill="#E46C0A" cx="1283.26" cy="752" r="3.334"/>
	<g>
		<text transform="matrix(1 0 0 1 347.3228 757.667)" fill="#808285" font-family="'FranklinGothic-Medium'" font-size="12">[ In Lakhs ]</text>
	</g>
	<g>
		<text transform="matrix(1 0 0 1 1088.3223 756.667)" fill="#808285" font-family="'FranklinGothic-Medium'" font-size="12">[ In Lakhs ]</text>
	</g>
	<text transform="matrix(1 0 0 1 844.75 407.75)" font-family="'FranklinGothic-Medium'" font-size="12">25</text>
	<text transform="matrix(1 0 0 1 914 375.5)" font-family="'FranklinGothic-Medium'" font-size="12">40</text>
	<text transform="matrix(1 0 0 1 978.75 313)" font-family="'FranklinGothic-Medium'" font-size="12">58</text>
	<text transform="matrix(1 0 0 1 1046 368.25)" font-family="'FranklinGothic-Medium'" font-size="12">44</text>
	<text transform="matrix(1 0 0 1 1113.75 414.75)" font-family="'FranklinGothic-Medium'" font-size="12">20</text>
	<text transform="matrix(1 0 0 1 1357.0811 440.5176)" fill="#FFFFFF" font-family="'FranklinGothic-Medium'" font-size="25.976">64 %</text>
	<text transform="matrix(1 0 0 1 1362.0068 691.0176)" fill="#FFFFFF" font-family="'FranklinGothic-Medium'" font-size="25.976">75 %</text>
	<text transform="matrix(1 0 0 1 1314.1543 387.5503)" fill="#FFFFFF" font-family="'FranklinGothic-Medium'" font-size="18.8358">26 %</text>
	<text transform="matrix(1 0 0 1 1321.1543 627.9473)" fill="#FFFFFF" font-family="'FranklinGothic-Medium'" font-size="18.8358">15 %</text>
	<text transform="matrix(1 0 0 1 1311.8535 658.9375)" fill="#FFFFFF" font-family="'FranklinGothic-Medium'" font-size="11.4748">10 %</text>
	<text transform="matrix(1 0 0 1 1310.25 424.8379)" fill="#414042" font-family="'FranklinGothic-Medium'" font-size="10.3068">10 %</text>
	<rect x="1474" y="363" fill="#65C98B" width="10" height="10"/>
	<rect x="1474" y="386" fill="#E46C0A" width="10" height="10"/>
	<rect x="1474" y="408" fill="#B7DEE8" width="10" height="10"/>
	<text transform="matrix(1 0 0 1 1493.668 372.5)" fill="#414042" font-family="'FranklinGothic-Medium'" font-size="12">Present</text>
	<text transform="matrix(1 0 0 1 1493.668 395.2891)" fill="#414042" font-family="'FranklinGothic-Medium'" font-size="12">Absent</text>
	<text transform="matrix(1 0 0 1 1493.668 418)" fill="#414042" font-family="'FranklinGothic-Medium'" font-size="12">On Leave</text>
	<rect x="1474" y="623" fill="#35CB72" width="10" height="10"/>
	<rect x="1474" y="646" fill="#E46C0A" width="10" height="10"/>
	<rect x="1474" y="668" fill="#008000" width="10" height="10"/>
	<text transform="matrix(1 0 0 1 1493.668 632.5)" fill="#414042" font-family="'FranklinGothic-Medium'" font-size="12">Present</text>
	<text transform="matrix(1 0 0 1 1493.668 655.2891)" fill="#414042" font-family="'FranklinGothic-Medium'" font-size="12">Absent</text>
	<text transform="matrix(1 0 0 1 1493.668 678)" fill="#414042" font-family="'FranklinGothic-Medium'" font-size="12">On Leave</text>
	<text transform="matrix(1 0 0 1 532.584 434.5371)" fill="#FFFFFF" font-family="'FranklinGothic-Medium'" font-size="22.6307">LAB</text>
	<text transform="matrix(1 0 0 1 620.2354 344.8594)" fill="#FFFFFF" font-family="'FranklinGothic-Medium'" font-size="10.1911">PHARMACY</text>
	<text transform="matrix(1 0 0 1 574.5479 581.6289)" fill="#FFFFFF" font-family="'FranklinGothic-Medium'" font-size="10.1911">PHARMACY</text>
	<text transform="matrix(1 0 0 1 655.7368 412.3848)" fill="#FFFFFF" font-family="'FranklinGothic-Medium'" font-size="26.5262">OT</text>
	<text transform="matrix(1 0 0 1 647.3564 620.8613)" fill="#FFFFFF" font-family="'FranklinGothic-Medium'" font-size="26.5262">OT</text>
	
		<text transform="matrix(0.9866 -0.1633 0.1633 0.9866 572.6826 322.2959)" fill="#FFFFFF" font-family="'FranklinGothic-Medium'" font-size="7.2636">SECURITY</text>
	<text transform="matrix(1 0 0 1 555.0303 447.25)" fill="#FFFFFF" font-family="'FranklinGothic-Medium'" font-size="12">45%</text>
	<text transform="matrix(1 0 0 1 572.6826 717)" fill="#FFFFFF" font-family="'FranklinGothic-Medium'" font-size="22.6307">LAB</text>
	<text transform="matrix(1 0 0 1 617.7666 724.5586)" fill="#FFFFFF" font-family="'FranklinGothic-Medium'" font-size="15.8438">55%</text>
	<text transform="matrix(1 0 0 1 648.2275 424.8379)" fill="#FFFFFF" font-family="'FranklinGothic-Medium'" font-size="12">25%</text>
	<text transform="matrix(1 0 0 1 660.8848 639.4307)" fill="#FFFFFF" font-family="'FranklinGothic-Medium'" font-size="12">25%</text>
	<text transform="matrix(1 0 0 1 645.3936 361.7461)" fill="#FFFFFF" font-family="'FranklinGothic-Medium'" font-size="18.3004">20%</text>
	<text transform="matrix(1 0 0 1 581.2275 602.4121)" fill="#FFFFFF" font-family="'FranklinGothic-Medium'" font-size="18.3004">15%</text>
	<text transform="matrix(1 0 0 1 581.2275 336.2876)" fill="#FFFFFF" font-family="'FranklinGothic-Medium'" font-size="12">10%</text>
	
		<text transform="matrix(0.9962 0.0867 -0.0867 0.9962 534.3721 619.458)" fill="#FFFFFF" font-family="'FranklinGothic-Medium'" font-size="7.2636">SECURITY</text>
	<text transform="matrix(1 0 0 1 543.5449 633.8428)" fill="#FFFFFF" font-family="'FranklinGothic-Medium'" font-size="12">5%</text>
	<text transform="matrix(1 0 0 1 699.0957 21)" fill="#FFFFFF" font-family="'FranklinGothic-Medium'" font-size="18">PATIENT BASED INFORMATION</text>
	<text transform="matrix(1 0 0 1 699.0957 265)" fill="#FFFFFF" font-family="'FranklinGothic-Medium'" font-size="18">PATIENT BASED INFORMATION</text>
</g>
</svg>
