<?xml version="1.0" encoding="utf-8"?>
<!-- Generator: Adobe Illustrator 16.0.0, SVG Export Plug-In . SVG Version: 6.00 Build 0)  -->
<!DOCTYPE svg PUBLIC "-//W3C//DTD SVG 1.1//EN" "http://www.w3.org/Graphics/SVG/1.1/DTD/svg11.dtd">
<svg version="1.1" xmlns="http://www.w3.org/2000/svg" xmlns:xlink="http://www.w3.org/1999/xlink" x="0px" y="0px" width="180px"
	 height="60px" viewBox="0 0 180 60" enable-background="new 0 0 180 60" xml:space="preserve">
<g id="Layer_1">
	<path fill="#34C244" d="M0.001,34.938c4.529,0.016,9.058,0.021,13.587,0.051c0.685,0.006,0.799-0.307,0.926-0.654
		c1.34-3.688,10.592-32.28,10.831-32.645C29.466,16.564,33.537,34.6,37.6,49.257c0.121,0.013,0.239,0.025,0.359,0.036
		c3.205-9.093,6.897-23.405,10.104-32.499c0.09-0.014,0.181-0.028,0.271-0.042c0.397,0.561,0.813,1.114,1.189,1.682
		c2.327,3.512,4.675,7.017,6.939,10.549c0.412,0.641,0.909,0.798,1.831,0.795c9.166-0.021,18.334-0.013,27.5-0.013
		c0.414,0,0.825,0,1.302,0c0,0.655,0,1.219,0,1.904c-0.462,0-0.905,0-1.348,0c-9.729,0-19.458-0.015-29.187,0.021
		c-1.057,0.002-1.541-0.269-1.957-0.916c-1.697-2.643-3.465-5.263-5.207-7.89c-0.072-0.109-0.153-0.215-0.502-0.347
		c-3.596,10.188-7.676,25.589-11.271,35.773c-0.111-0.004-0.223-0.011-0.336-0.016c-4.071-14.714-8.153-32.806-12.225-47.521
		c-0.073-0.012-0.146-0.024-0.22-0.037c-0.109,0.182-0.256,0.356-0.325,0.546c-2.584,7.083-5.168,17.542-7.701,24.634
		c-0.28,0.788-0.749,0.999-1.854,0.989C9.976,36.861,4.987,36.891,0,36.895C0.001,36.243,0.001,35.59,0.001,34.938z"/>
	<path fill="#34C244" d="M172.189,33.18c-16.045,0-32.086,0-48.201,0c0-0.826,0-1.535,0-2.412c0.438,0,0.879,0,1.318,0
		c15.172,0,30.346,0,45.52-0.004c0.453,0,0.908-0.033,1.363-0.054C172.189,31.533,172.189,32.355,172.189,33.18z"/>
	<path fill="#FF2F1F" d="M172.189,49.506c-0.07-0.005-0.143-0.015-0.213-0.01c-1.986,0.122-1.984,0.122-2.115-1.68
		c-0.004-0.086-0.059-0.172-0.146-0.426c-2.539,2.241-5.477,3.078-8.859,2.161c-1.887-0.511-3.313-1.62-4.404-3.083
		c-2.193-2.947-1.729-7.107,1.084-9.691c1.688-1.557,3.75-2.282,6.154-2.25c2.408,0.035,4.357,0.977,6.072,2.74
		c0.055-0.475,0.102-0.711,0.105-0.945c0.029-1.502,0.078-1.545,1.717-1.395c0.207,0.021,0.404,0.098,0.605,0.148
		C172.189,39.887,172.189,44.695,172.189,49.506z M163.766,36.381c-3.447-0.076-6.412,2.521-6.537,5.73
		c-0.117,3.084,2.811,5.916,6.238,6.025c3.531,0.117,6.475-2.447,6.596-5.746C170.184,39.176,167.338,36.463,163.766,36.381z"/>
	<path fill="#FF2F1F" d="M123.463,50.938c-1.842,0.523-3.129,0.07-3.965-1.351c-0.518-0.879-1.086-0.896-2.105-0.497
		c-5.818,2.266-12.984,0.424-15.646-5.587c-2.531-5.718,1.047-12.177,7.533-13.857c6.395-1.657,13.076,1.741,14.498,7.54
		c0.84,3.438,0.17,6.687-2.598,9.365c-0.641,0.623-0.758,1.055-0.063,1.721C121.949,49.07,122.641,49.99,123.463,50.938z
		 M118.885,45.693c3.629-2.911,3.824-8.406,0.541-11.67c-3.525-3.504-9.416-3.708-13.297-0.465
		c-3.551,2.967-3.732,8.489-0.549,11.698c3.5,3.529,9.143,3.313,11.459,1.532c-0.748-0.857-1.5-1.721-2.252-2.583
		c-0.766-0.878-1.527-1.761-2.449-2.824c1.574-0.077,2.771-0.297,3.658,0.992C116.799,43.545,117.879,44.559,118.885,45.693z"/>
	<path fill="#34C244" d="M88.658,37.365c0-2.85,0-5.415,0-8.035c0.763,0,1.377,0,2.11,0c0.023,0.37,0.064,0.702,0.064,1.036
		c0.004,6.009,0.004,12.019,0.002,18.028c0,1.119-0.48,1.459-1.688,1.135c-0.201-0.057-0.412-0.381-0.441-0.603
		c-0.069-0.483-0.022-0.978-0.022-1.758c-2.256,2.165-4.751,3.03-7.698,2.683c-2.12-0.254-3.806-1.229-5.181-2.67
		c-2.687-2.816-2.556-7.498,0.259-10.19c1.703-1.634,3.762-2.487,6.256-2.482C84.819,34.516,86.836,35.453,88.658,37.365z
		 M82.572,36.396c-3.489-0.064-6.446,2.528-6.522,5.723c-0.078,3.186,2.869,5.974,6.352,6.007c3.515,0.035,6.319-2.496,6.421-5.793
		C88.917,39.127,86.114,36.463,82.572,36.396z"/>
	<path fill="#34C244" d="M56.323,42.441c-0.328,3.947,4.133,6.695,8.362,5.264c1.368-0.466,2.469-1.24,3.177-2.378
		c0.59-0.949,1.205-0.414,1.825-0.138c0.791,0.357,0.278,0.791,0.019,1.162c-2.552,3.676-8.357,4.764-12.2,2.293
		c-3.957-2.545-4.723-7.89-1.632-11.394c2.109-2.392,5.614-3.356,8.912-2.458c3.305,0.9,5.6,3.438,5.931,6.477
		c0.095,0.854-0.138,1.153-1.167,1.141c-4.004-0.059-8.008-0.025-12.01-0.021C57.129,42.389,56.718,42.424,56.323,42.441z
		 M68.237,40.65c-0.541-2.707-3.182-4.418-6.375-4.246c-2.688,0.146-5.118,2.104-5.221,4.246
		C60.477,40.65,64.312,40.65,68.237,40.65z"/>
	<path fill="#FF2F1F" d="M139.885,39.82c0-1.394,0.031-2.784-0.018-4.176c-0.023-0.717,0.41-0.771,0.994-0.729
		c0.547,0.04,1.268-0.21,1.24,0.705c-0.072,2.876-0.029,5.756-0.199,8.624c-0.25,4.244-3.891,6.188-8.447,5.551
		c-3.256-0.456-5.203-2.323-5.436-5.432c-0.221-2.929-0.115-5.878-0.168-8.818c-0.014-0.788,0.613-0.598,1.105-0.632
		c0.586-0.039,1.01,0.02,0.996,0.73c-0.039,2.023-0.035,4.051-0.006,6.074c0.016,0.883,0.082,1.771,0.209,2.646
		c0.33,2.28,2.281,3.724,4.904,3.67c2.652-0.054,4.531-1.528,4.719-3.854c0.117-1.443,0.021-2.904,0.021-4.359
		C139.83,39.82,139.857,39.82,139.885,39.82z"/>
	<path fill="#FF2F1F" d="M148.184,36.662c1.709-1.671,3.391-2.787,5.855-1.637c-0.49,0.92-0.758,1.643-2.205,1.453
		c-1.414-0.188-2.49,0.804-2.896,1.955c-0.471,1.327-0.719,2.752-0.811,4.149c-0.129,2.013-0.078,4.04-0.014,6.06
		c0.029,0.93-0.543,0.885-1.262,0.918c-0.797,0.035-1.016-0.227-1.01-0.925c0.029-4.261,0.039-8.524-0.006-12.786
		c-0.008-0.777,0.275-0.97,1.08-0.955c0.777,0.015,1.336,0.078,1.184,0.965C148.07,36.035,148.135,36.225,148.184,36.662z"/>
	<path fill="#34C244" d="M97.32,42.254c0,2.148-0.02,4.299,0.016,6.445c0.006,0.65-0.205,0.919-0.961,0.873
		c-0.646-0.037-1.244,0.063-1.236-0.838c0.033-4.358,0.029-8.719,0-13.079c-0.006-0.876,0.604-0.728,1.193-0.765
		c0.684-0.043,1.02,0.108,1.006,0.822C97.291,37.895,97.32,40.075,97.32,42.254z"/>
	<path fill="#FF2F1F" d="M97.305,31.057c0,0.58-0.035,0.99,0.012,1.396c0.066,0.679-0.088,1.025-1,1.027
		c-0.926,0-1.059-0.36-0.992-1.033c0.041-0.404,0.008-0.814,0.008-1.363c-0.893,0-1.709,0-2.586,0c0-0.634,0-1.126,0-1.729
		c0.814-0.041,1.629-0.084,2.559-0.133c0-0.754,0-1.463,0-2.248c0.693,0,1.27,0,1.965,0c0,0.717,0,1.426,0,2.243
		c0.928,0.044,1.748,0.083,2.621,0.124c0,0.569,0,1.088,0,1.716C99.037,31.057,98.246,31.057,97.305,31.057z"/>
</g>
<g id="Layer_2">
</g>
</svg>
